<svg width="60" height="60" viewBox="0 0 60 60" fill="none" xmlns="http://www.w3.org/2000/svg">
<rect width="60" height="60" rx="30" fill="#5793F4"/>
<path d="M26.7451 26.185L24.0001 27.184V32.5H21.0001V25.075H21.0226L28.9246 22.198C29.2906 22.0585 29.6896 21.988 30.0976 22.0015C30.9126 22.0227 31.7009 22.2969 32.3531 22.786C33.0054 23.2752 33.4894 23.955 33.7381 24.7315C34.0171 25.6065 34.2721 26.197 34.5031 26.503C35.2017 27.4335 36.1072 28.1887 37.1481 28.7089C38.1889 29.229 39.3365 29.4999 40.5001 29.5V32.5C38.9511 32.5013 37.4211 32.1593 36.02 31.4987C34.6189 30.8381 33.3816 29.8753 32.3971 28.6795L31.3516 34.6135L34.5001 37.255V47.5H31.5001V38.653L28.0951 35.797L27.0046 41.9875L16.6636 40.165L17.1856 37.21L24.5716 38.512L26.7451 26.185ZM32.2501 21.25C31.4544 21.25 30.6914 20.9339 30.1288 20.3713C29.5661 19.8087 29.2501 19.0456 29.2501 18.25C29.2501 17.4544 29.5661 16.6913 30.1288 16.1287C30.6914 15.5661 31.4544 15.25 32.2501 15.25C33.0457 15.25 33.8088 15.5661 34.3714 16.1287C34.934 16.6913 35.2501 17.4544 35.2501 18.25C35.2501 19.0456 34.934 19.8087 34.3714 20.3713C33.8088 20.9339 33.0457 21.25 32.2501 21.25Z" fill="#DBEAFE"/>
</svg>
