<svg width="61" height="60" viewBox="0 0 61 60" fill="none" xmlns="http://www.w3.org/2000/svg">
<rect width="60.6667" height="60" rx="30" fill="#FAC342"/>
<path d="M39 16.6C39 15.6 38.2 15 37.4 15H37C33.6 15 31 18.8 31 24.4V26.2C31 28.2 32 30 33.8 31C33.2 33.4 33 36 33 36V44C33 45.6 34.4 47 36 47C37.6 47 39 45.6 39 44V36C39 35.2 38.8 33.2 38.4 31.4C38.8 31 39 30.6 39 30V16.6ZM27.4 15H27V22C27 22.6 26.6 23 26 23C25.4 23 25 22.6 25 22V16C25 15.4 24.6 15 24 15C23.4 15 23 15.4 23 16V22C23 22.6 22.6 23 22 23C21.4 23 21 22.6 21 22V15H20.6C19.8 15 19 15.8 19 16.6V24C19 26 20.2 27.8 22 28.6C21.2 31.8 21 36 21 36V44C21 45.6 22.4 47 24 47C25.6 47 27 45.6 27 44V36C27 35 26.8 31.4 26.2 28.6C27.8 27.8 29 26 29 24V16.6C29 15.8 28.2 15 27.4 15Z" fill="#FEF3D7"/>
</svg>
