<svg width="61" height="60" viewBox="0 0 61 60" fill="none" xmlns="http://www.w3.org/2000/svg">
<rect width="60.6667" height="60" rx="30" fill="#85E6C7"/>
<path fill-rule="evenodd" clip-rule="evenodd" d="M37.8585 16.0081C38.0672 16.0318 38.2681 16.1038 38.4461 16.2186C38.6242 16.3333 38.7749 16.488 38.887 16.6712C43.3592 23.9745 42.6842 31.7276 38.9485 36.611C37.0828 39.0483 34.4624 40.7491 31.406 41.2522C28.7395 41.6889 25.8256 41.2003 22.8893 39.6148C22.6196 40.4926 22.4281 41.3444 22.3177 42.1472C22.264 42.5244 22.0676 42.8642 21.7716 43.0924C21.4755 43.3206 21.1039 43.4185 20.738 43.3648C20.3721 43.311 20.0417 43.11 19.8192 42.8056C19.5966 42.5013 19.5001 42.1184 19.5506 41.7408C19.7447 40.4033 20.0735 39.0903 20.5317 37.8232C18.3836 35.3873 17.7967 32.3056 18.058 29.5526C18.3459 26.5157 19.6889 23.6027 21.4373 22.0993C23.774 20.0915 26.2281 19.2671 28.3579 18.8635C29.2887 18.6973 30.2259 18.5718 31.167 18.4873C31.8364 18.4181 32.5198 18.372 33.1739 18.2048C34.142 17.9633 35.0673 17.5664 35.9159 17.0286C36.5336 16.6308 37.0605 15.9159 37.8585 16.0081ZM23.9389 36.9252C25.493 33.6576 28.0337 30.5255 31.3417 28.819C31.5073 28.7353 31.6552 28.6186 31.7769 28.4756C31.8986 28.3327 31.9917 28.1663 32.0507 27.9861C32.1098 27.8059 32.1336 27.6154 32.121 27.4256C32.1083 27.2358 32.0593 27.0505 31.9769 26.8803C31.8944 26.7102 31.7801 26.5585 31.6406 26.4341C31.501 26.3097 31.339 26.2151 31.1638 26.1556C30.9886 26.0961 30.8037 26.073 30.6198 26.0875C30.4359 26.1021 30.2566 26.154 30.0923 26.2404C26.4475 28.1199 23.6552 31.3702 21.8398 34.8367C22.2006 35.4431 22.6482 35.9897 23.1674 36.4582C23.4264 36.6244 23.6827 36.7801 23.9389 36.9252Z" fill="#E0FAF2"/>
</svg>
