<svg width="61" height="60" viewBox="0 0 61 60" fill="none" xmlns="http://www.w3.org/2000/svg">
<rect width="60.6667" height="60" rx="30" fill="#9A6A4B"/>
<path d="M24.0625 21.3125C23.4326 21.3125 22.8285 21.5627 22.3831 22.0081C21.9377 22.4535 21.6875 23.0576 21.6875 23.6875C21.6875 24.3174 21.9377 24.9215 22.3831 25.3669C22.8285 25.8123 23.4326 26.0625 24.0625 26.0625C24.6924 26.0625 25.2965 25.8123 25.7419 25.3669C26.1873 24.9215 26.4375 24.3174 26.4375 23.6875C26.4375 23.0576 26.1873 22.4535 25.7419 22.0081C25.2965 21.5627 24.6924 21.3125 24.0625 21.3125ZM35.9375 21.3125C35.3076 21.3125 34.7035 21.5627 34.2581 22.0081C33.8127 22.4535 33.5625 23.0576 33.5625 23.6875C33.5625 24.3174 33.8127 24.9215 34.2581 25.3669C34.7035 25.8123 35.3076 26.0625 35.9375 26.0625C36.5674 26.0625 37.1715 25.8123 37.6169 25.3669C38.0623 24.9215 38.3125 24.3174 38.3125 23.6875C38.3125 23.0576 38.0623 22.4535 37.6169 22.0081C37.1715 21.5627 36.5674 21.3125 35.9375 21.3125ZM16.9375 27.25C16.6226 27.25 16.3205 27.3751 16.0978 27.5978C15.8751 27.8205 15.75 28.1226 15.75 28.4375C15.75 28.7524 15.8751 29.0545 16.0978 29.2772C16.3205 29.4999 16.6226 29.625 16.9375 29.625H19.3125C19.9704 29.625 20.5 30.1546 20.5 30.8125V40.3125C20.5 40.6274 20.6251 40.9295 20.8478 41.1522C21.0705 41.3749 21.3726 41.5 21.6875 41.5C22.0024 41.5 22.3045 41.3749 22.5272 41.1522C22.7499 40.9295 22.875 40.6274 22.875 40.3125V35.5625C22.875 35.2476 23.0001 34.9455 23.2228 34.7228C23.4455 34.5001 23.7476 34.375 24.0625 34.375C24.3774 34.375 24.6795 34.5001 24.9022 34.7228C25.1249 34.9455 25.25 35.2476 25.25 35.5625V40.3125C25.25 40.6274 25.3751 40.9295 25.5978 41.1522C25.8205 41.3749 26.1226 41.5 26.4375 41.5C26.7524 41.5 27.0545 41.3749 27.2772 41.1522C27.4999 40.9295 27.625 40.6274 27.625 40.3125V30.8125C27.625 30.1546 28.1546 29.625 28.8125 29.625H31.1875C31.8454 29.625 32.375 30.1546 32.375 30.8125V40.3125C32.375 40.6274 32.5001 40.9295 32.7228 41.1522C32.9455 41.3749 33.2476 41.5 33.5625 41.5C33.8774 41.5 34.1795 41.3749 34.4022 41.1522C34.6249 40.9295 34.75 40.6274 34.75 40.3125V35.5625C34.75 35.2476 34.8751 34.9455 35.0978 34.7228C35.3205 34.5001 35.6226 34.375 35.9375 34.375C36.2524 34.375 36.5545 34.5001 36.7772 34.7228C36.9999 34.9455 37.125 35.2476 37.125 35.5625V40.3125C37.125 40.6274 37.2501 40.9295 37.4728 41.1522C37.6955 41.3749 37.9976 41.5 38.3125 41.5C38.6274 41.5 38.9295 41.3749 39.1522 41.1522C39.3749 40.9295 39.5 40.6274 39.5 40.3125V30.8125C39.5 30.1546 40.0296 29.625 40.6875 29.625H43.0625C43.3774 29.625 43.6795 29.4999 43.9022 29.2772C44.1249 29.0545 44.25 28.7524 44.25 28.4375C44.25 28.1226 44.1249 27.8205 43.9022 27.5978C43.6795 27.3751 43.3774 27.25 43.0625 27.25H16.9375Z" fill="#F5EDE6"/>
</svg>
