<svg width="61" height="60" viewBox="0 0 61 60" fill="none" xmlns="http://www.w3.org/2000/svg">
<rect width="60.6667" height="60" rx="30" fill="#EE7864"/>
<path d="M38.75 30.5C38.1533 30.5 37.581 30.2629 37.159 29.841C36.7371 29.419 36.5 28.8467 36.5 28.25C36.5 27.6533 36.7371 27.081 37.159 26.659C37.581 26.2371 38.1533 26 38.75 26C39.3467 26 39.919 26.2371 40.341 26.659C40.7629 27.081 41 27.6533 41 28.25C41 28.8467 40.7629 29.419 40.341 29.841C39.919 30.2629 39.3467 30.5 38.75 30.5ZM34.25 24.5C33.6533 24.5 33.081 24.2629 32.659 23.841C32.2371 23.419 32 22.8467 32 22.25C32 21.6533 32.2371 21.081 32.659 20.659C33.081 20.2371 33.6533 20 34.25 20C34.8467 20 35.419 20.2371 35.841 20.659C36.2629 21.081 36.5 21.6533 36.5 22.25C36.5 22.8467 36.2629 23.419 35.841 23.841C35.419 24.2629 34.8467 24.5 34.25 24.5ZM26.75 24.5C26.1533 24.5 25.581 24.2629 25.159 23.841C24.7371 23.419 24.5 22.8467 24.5 22.25C24.5 21.6533 24.7371 21.081 25.159 20.659C25.581 20.2371 26.1533 20 26.75 20C27.3467 20 27.919 20.2371 28.341 20.659C28.7629 21.081 29 21.6533 29 22.25C29 22.8467 28.7629 23.419 28.341 23.841C27.919 24.2629 27.3467 24.5 26.75 24.5ZM22.25 30.5C21.6533 30.5 21.081 30.2629 20.659 29.841C20.2371 29.419 20 28.8467 20 28.25C20 27.6533 20.2371 27.081 20.659 26.659C21.081 26.2371 21.6533 26 22.25 26C22.8467 26 23.419 26.2371 23.841 26.659C24.2629 27.081 24.5 27.6533 24.5 28.25C24.5 28.8467 24.2629 29.419 23.841 29.841C23.419 30.2629 22.8467 30.5 22.25 30.5ZM30.5 17C26.9196 17 23.4858 18.4223 20.9541 20.9541C18.4223 23.4858 17 26.9196 17 30.5C17 34.0804 18.4223 37.5142 20.9541 40.0459C23.4858 42.5777 26.9196 44 30.5 44C31.0967 44 31.669 43.7629 32.091 43.341C32.5129 42.919 32.75 42.3467 32.75 41.75C32.75 41.165 32.525 40.64 32.165 40.25C31.82 39.845 31.595 39.32 31.595 38.75C31.595 38.1533 31.8321 37.581 32.254 37.159C32.676 36.7371 33.2483 36.5 33.845 36.5H36.5C38.4891 36.5 40.3968 35.7098 41.8033 34.3033C43.2098 32.8968 44 30.9891 44 29C44 22.37 37.955 17 30.5 17Z" fill="#FDEAE7"/>
</svg>
