<svg width="16" height="16" viewBox="0 0 16 16" fill="none" xmlns="http://www.w3.org/2000/svg">
<path d="M7.99991 11.5168L5.23324 13.1834C5.11102 13.2612 4.98324 13.2945 4.84991 13.2834C4.71658 13.2723 4.59991 13.2279 4.49991 13.1501C4.39991 13.0723 4.32213 12.9752 4.26658 12.8588C4.21102 12.7423 4.19991 12.6117 4.23324 12.4668L4.96658 9.31677L2.51658 7.2001C2.40546 7.1001 2.33613 6.9861 2.30858 6.8581C2.28102 6.7301 2.28924 6.60521 2.33324 6.48343C2.37724 6.36166 2.44391 6.26165 2.53324 6.18343C2.62258 6.10521 2.7448 6.05521 2.89991 6.03343L6.13324 5.7501L7.38324 2.78343C7.4388 2.6501 7.52502 2.5501 7.64191 2.48343C7.7588 2.41677 7.87813 2.38343 7.99991 2.38343C8.12169 2.38343 8.24102 2.41677 8.35791 2.48343C8.4748 2.5501 8.56102 2.6501 8.61658 2.78343L9.86658 5.7501L13.0999 6.03343C13.2555 6.05565 13.3777 6.10565 13.4666 6.18343C13.5555 6.26121 13.6221 6.36121 13.6666 6.48343C13.711 6.60566 13.7195 6.73077 13.6919 6.85877C13.6644 6.98677 13.5948 7.10054 13.4832 7.2001L11.0332 9.31677L11.7666 12.4668C11.7999 12.6112 11.7888 12.7419 11.7332 12.8588C11.6777 12.9757 11.5999 13.0728 11.4999 13.1501C11.3999 13.2274 11.2832 13.2719 11.1499 13.2834C11.0166 13.295 10.8888 13.2617 10.7666 13.1834L7.99991 11.5168Z" fill="#FAC342"/>
</svg>
