<svg width="16" height="16" viewBox="0 0 16 16" fill="none" xmlns="http://www.w3.org/2000/svg">
<g clip-path="url(#clip0_604_1396)">
<path d="M13.8936 16.1533L12.0736 14.3333H2.00023V13.6667L3.33357 12.3333V8.33332C3.33357 7.57332 3.5269 6.81999 3.8869 6.14665L0.740234 2.99999L1.59357 2.15332L14.7402 15.3067L13.8936 16.1533ZM12.6669 11.5333V8.33332C12.6669 6.26665 11.3136 4.44665 9.33357 3.85999V3.66665C9.33357 3.31303 9.19309 2.97389 8.94304 2.72384C8.693 2.4738 8.35386 2.33332 8.00023 2.33332C7.64661 2.33332 7.30747 2.4738 7.05743 2.72384C6.80738 2.97389 6.6669 3.31303 6.6669 3.66665V3.85999C6.26023 3.97999 5.8669 4.15999 5.5069 4.39332L12.6669 11.5333ZM8.00023 16.3333C8.35386 16.3333 8.693 16.1928 8.94304 15.9428C9.19309 15.6927 9.33357 15.3536 9.33357 15H6.6669C6.6669 15.3536 6.80738 15.6927 7.05743 15.9428C7.30747 16.1928 7.64661 16.3333 8.00023 16.3333Z" fill="#FEFEFE"/>
</g>
<defs>
<clipPath id="clip0_604_1396">
<rect width="16" height="16" fill="white"/>
</clipPath>
</defs>
</svg>
