<svg width="52" height="52" viewBox="0 0 52 52" fill="none" xmlns="http://www.w3.org/2000/svg">
<rect x="0.25" y="0.25" width="51.5" height="51.5" rx="25.75" fill="white"/>
<rect x="0.25" y="0.25" width="51.5" height="51.5" rx="25.75" stroke="#5793F4" stroke-width="0.5"/>
<path d="M40 25.9998C39.9999 25.4694 39.7891 24.9608 39.414 24.5858L27.414 12.5858C27.2295 12.3948 27.0088 12.2425 26.7648 12.1376C26.5208 12.0328 26.2584 11.9776 25.9928 11.9753C25.7272 11.973 25.4639 12.0236 25.2181 12.1242C24.9723 12.2248 24.749 12.3733 24.5612 12.561C24.3734 12.7488 24.2249 12.9721 24.1244 13.2179C24.0238 13.4637 23.9732 13.7271 23.9755 13.9926C23.9778 14.2582 24.033 14.5206 24.1378 14.7646C24.2426 15.0087 24.395 15.2293 24.586 15.4138L33.172 23.9998L14 23.9998C13.4696 23.9998 12.9609 24.2106 12.5858 24.5856C12.2107 24.9607 12 25.4694 12 25.9998C12 26.5303 12.2107 27.039 12.5858 27.414C12.9609 27.7891 13.4696 27.9998 14 27.9998L33.172 27.9998L24.586 36.5858C24.395 36.7703 24.2426 36.991 24.1378 37.235C24.033 37.479 23.9778 37.7415 23.9755 38.007C23.9732 38.2726 24.0238 38.536 24.1244 38.7817C24.2249 39.0275 24.3734 39.2508 24.5612 39.4386C24.749 39.6264 24.9723 39.7749 25.2181 39.8755C25.4639 39.976 25.7272 40.0266 25.9928 40.0243C26.2584 40.022 26.5208 39.9669 26.7648 39.862C27.0088 39.7572 27.2295 39.6049 27.414 39.4138L39.414 27.4138L39.546 27.2678C39.8394 26.9104 39.9998 26.4623 40 25.9998Z" fill="#5793F4"/>
</svg>
