<svg width="10" height="12" viewBox="0 0 10 12" fill="none" xmlns="http://www.w3.org/2000/svg">
<path d="M4.79999 5.99999C5.12999 5.99999 5.41249 5.88249 5.64749 5.64749C5.88249 5.41249 5.99999 5.12999 5.99999 4.79999C5.99999 4.46999 5.88249 4.18749 5.64749 3.95249C5.41249 3.71749 5.12999 3.59999 4.79999 3.59999C4.46999 3.59999 4.18749 3.71749 3.95249 3.95249C3.71749 4.18749 3.59999 4.46999 3.59999 4.79999C3.59999 5.12999 3.71749 5.41249 3.95249 5.64749C4.18749 5.88249 4.46999 5.99999 4.79999 5.99999ZM4.79999 10.41C6.01999 9.28998 6.92499 8.27249 7.51499 7.35749C8.10499 6.44249 8.39999 5.62999 8.39999 4.91999C8.39999 3.82999 8.05249 2.9375 7.35749 2.2425C6.66249 1.5475 5.80999 1.2 4.79999 1.2C3.78999 1.2 2.9375 1.5475 2.2425 2.2425C1.5475 2.9375 1.2 3.82999 1.2 4.91999C1.2 5.62999 1.495 6.44249 2.085 7.35749C2.675 8.27249 3.57999 9.28998 4.79999 10.41ZM4.79999 12C3.18999 10.63 1.9875 9.35748 1.1925 8.18249C0.397499 7.00749 0 5.91999 0 4.91999C0 3.41999 0.482499 2.225 1.4475 1.335C2.4125 0.444999 3.52999 0 4.79999 0C6.06999 0 7.18749 0.444999 8.15249 1.335C9.11748 2.225 9.59998 3.41999 9.59998 4.91999C9.59998 5.91999 9.20248 7.00749 8.40749 8.18249C7.61249 9.35748 6.40999 10.63 4.79999 12Z" fill="#424752"/>
</svg>
