<svg width="50" height="50" viewBox="0 0 50 50" fill="none" xmlns="http://www.w3.org/2000/svg">
<rect x="0.390625" y="0.390625" width="49.2188" height="49.2188" rx="24.6094" fill="#FAFAF8"/>
<rect x="0.390625" y="0.390625" width="49.2188" height="49.2188" rx="24.6094" stroke="#EE7864" stroke-width="0.78125"/>
<path d="M25.5208 37.9557L23.6328 36.263C21.441 34.2882 19.6289 32.5846 18.1966 31.1523C16.7643 29.7201 15.625 28.4342 14.7786 27.2949C13.9323 26.1556 13.3409 25.1085 13.0046 24.1536C12.6682 23.1988 12.5 22.2222 12.5 21.224C12.5 19.184 13.1836 17.4805 14.5508 16.1133C15.918 14.7461 17.6215 14.0625 19.6615 14.0625C20.7899 14.0625 21.8641 14.3012 22.8841 14.7786C23.9041 15.2561 24.783 15.9288 25.5208 16.7969C26.2587 15.9288 27.1376 15.2561 28.1576 14.7786C29.1775 14.3012 30.2517 14.0625 31.3802 14.0625C33.4201 14.0625 35.1237 14.7461 36.4909 16.1133C37.8581 17.4805 38.5417 19.184 38.5417 21.224C38.5417 22.2222 38.3735 23.1988 38.0371 24.1536C37.7007 25.1085 37.1094 26.1556 36.263 27.2949C35.4167 28.4342 34.2773 29.7201 32.8451 31.1523C31.4128 32.5846 29.6007 34.2882 27.4089 36.263L25.5208 37.9557ZM25.5208 34.4401C27.6042 32.5738 29.3186 30.9733 30.6641 29.6387C32.0095 28.304 33.0729 27.143 33.8542 26.1556C34.6354 25.1682 35.178 24.2893 35.4818 23.5189C35.7856 22.7485 35.9375 21.9835 35.9375 21.224C35.9375 19.9219 35.5035 18.8368 34.6354 17.9688C33.7674 17.1007 32.6823 16.6667 31.3802 16.6667C30.3602 16.6667 29.4162 16.9542 28.5482 17.5293C27.6801 18.1044 27.0833 18.8368 26.7578 19.7266H24.2839C23.9583 18.8368 23.3615 18.1044 22.4935 17.5293C21.6254 16.9542 20.6814 16.6667 19.6615 16.6667C18.3594 16.6667 17.2743 17.1007 16.4062 17.9688C15.5382 18.8368 15.1042 19.9219 15.1042 21.224C15.1042 21.9835 15.2561 22.7485 15.5599 23.5189C15.8637 24.2893 16.4062 25.1682 17.1875 26.1556C17.9688 27.143 19.0321 28.304 20.3776 29.6387C21.7231 30.9733 23.4375 32.5738 25.5208 34.4401Z" fill="#EE7864"/>
</svg>
