<svg width="40" height="40" viewBox="0 0 40 40" fill="none" xmlns="http://www.w3.org/2000/svg">
<rect x="0.5" y="0.5" width="39" height="39" rx="19.5" fill="#F4F3F0"/>
<rect x="0.5" y="0.5" width="39" height="39" rx="19.5" stroke="#5793F4"/>
<path d="M10.7871 11.28C10.8816 11.252 10.9806 11.243 11.0786 11.2534C11.1766 11.2637 11.2716 11.2933 11.3581 11.3404C11.4447 11.3875 11.5211 11.4511 11.583 11.5278C11.645 11.6044 11.6912 11.6925 11.7191 11.787L12.2691 13.65H26.9241C28.7641 13.65 30.1691 15.367 29.6391 17.16L27.9841 22.76C27.6321 23.953 26.5131 24.75 25.2691 24.75H16.1131C14.8691 24.75 13.7511 23.953 13.3981 22.76L10.2811 12.212C10.2249 12.0214 10.2467 11.8164 10.3415 11.6418C10.4364 11.4673 10.5966 11.3365 10.7871 11.28ZM14.2501 28.5C14.2501 27.9032 14.4871 27.331 14.9091 26.909C15.331 26.487 15.9033 26.25 16.5001 26.25C17.0968 26.25 17.6691 26.487 18.0911 26.909C18.513 27.331 18.7501 27.9032 18.7501 28.5C18.7501 29.0967 18.513 29.669 18.0911 30.091C17.6691 30.5129 17.0968 30.75 16.5001 30.75C15.9033 30.75 15.331 30.5129 14.9091 30.091C14.4871 29.669 14.2501 29.0967 14.2501 28.5ZM22.2501 28.5C22.2501 28.2045 22.3083 27.9119 22.4213 27.6389C22.5344 27.366 22.7002 27.1179 22.9091 26.909C23.118 26.7001 23.3661 26.5343 23.639 26.4213C23.912 26.3082 24.2046 26.25 24.5001 26.25C24.7956 26.25 25.0881 26.3082 25.3611 26.4213C25.6341 26.5343 25.8821 26.7001 26.0911 26.909C26.3 27.1179 26.4657 27.366 26.5788 27.6389C26.6919 27.9119 26.7501 28.2045 26.7501 28.5C26.7501 29.0967 26.513 29.669 26.0911 30.091C25.6691 30.5129 25.0968 30.75 24.5001 30.75C23.9033 30.75 23.331 30.5129 22.9091 30.091C22.4871 29.669 22.2501 29.0967 22.2501 28.5Z" fill="#5793F4"/>
</svg>
