<svg width="60" height="60" viewBox="0 0 60 60" fill="none" xmlns="http://www.w3.org/2000/svg">
<rect x="0.25" y="0.25" width="59.5" height="59.5" rx="29.75" fill="white"/>
<rect x="0.25" y="0.25" width="59.5" height="59.5" rx="29.75" stroke="#5793F4" stroke-width="0.5"/>
<path d="M16 30C16.0001 29.4696 16.2109 28.961 16.586 28.586L28.586 16.586C28.7705 16.395 28.9912 16.2426 29.2352 16.1378C29.4792 16.033 29.7416 15.9778 30.0072 15.9755C30.2728 15.9732 30.5361 16.0238 30.7819 16.1244C31.0277 16.2249 31.251 16.3734 31.4388 16.5612C31.6266 16.749 31.7751 16.9723 31.8756 17.2181C31.9762 17.4639 32.0268 17.7273 32.0245 17.9928C32.0222 18.2584 31.967 18.5208 31.8622 18.7648C31.7574 19.0088 31.605 19.2295 31.414 19.414L22.828 28L42 28C42.5304 28 43.0391 28.2107 43.4142 28.5858C43.7893 28.9609 44 29.4696 44 30C44 30.5305 43.7893 31.0392 43.4142 31.4142C43.0391 31.7893 42.5304 32 42 32L22.828 32L31.414 40.586C31.605 40.7705 31.7574 40.9912 31.8622 41.2352C31.967 41.4792 32.0222 41.7417 32.0245 42.0072C32.0268 42.2728 31.9762 42.5361 31.8756 42.7819C31.7751 43.0277 31.6266 43.251 31.4388 43.4388C31.251 43.6266 31.0277 43.7751 30.7819 43.8757C30.5361 43.9762 30.2728 44.0268 30.0072 44.0245C29.7416 44.0222 29.4792 43.967 29.2352 43.8622C28.9912 43.7574 28.7705 43.605 28.586 43.414L16.586 31.414L16.454 31.268C16.1606 30.9106 16.0002 30.4625 16 30Z" fill="#5793F4"/>
</svg>
