<svg width="136" height="119" viewBox="0 0 136 119" fill="none" xmlns="http://www.w3.org/2000/svg">
<g clip-path="url(#clip0_220_4731)">
<path d="M63.5119 58.9786C59.6776 55.0166 60.06 49.8528 61.1882 44.4604C62.3165 39.0679 65.5318 34.2868 69.4615 30.4249C73.3912 26.5629 78.016 23.5009 82.6224 20.4604C91.4152 14.6633 110.809 2.80791 110.809 2.80791C110.809 2.80791 109.475 4.7703 108.644 6.10079C95.7393 26.9965 81.4882 47.8864 66.8659 67.6196C65.4828 66.3707 60.3329 65.0026 60.3329 65.0026C60.3329 65.0026 62.4713 61.4908 63.8463 60.1783C64.019 60.0745 63.1163 59.0595 63.5119 58.9786Z" fill="#FAFAF8" stroke="#4D4D4D" stroke-miterlimit="10"/>
<path d="M63.1213 60.4155C66.9427 64.5995 72.4498 64.8749 78.2744 64.4525C84.099 64.03 89.4802 61.5221 93.9666 58.2297C98.4522 54.9274 102.144 50.8528 105.817 46.7897C112.821 39.0418 127.288 21.8325 127.288 21.8325C127.288 21.8325 125.077 22.8683 123.581 23.5171C100.172 33.3535 76.6325 44.486 54.2876 56.1185C55.4681 57.6042 56.4193 62.7346 56.4193 62.7346C56.4193 62.7346 60.3523 61.1129 61.8794 59.9493C62.0076 59.7887 62.9994 60.7866 63.1221 60.4255L63.1213 60.4155Z" fill="#FAFAF8" stroke="#4D4D4D" stroke-miterlimit="10"/>
<path d="M54.5943 55.2809C50.1194 57.5577 45.1276 59.9047 40.2835 58.5932C37.5641 57.8601 35.2725 56.0388 32.6849 54.9337C24.767 51.5603 15.157 55.6326 9.94431 62.5079C7.67567 65.5074 6.03127 69.0411 5.63928 72.7889C5.2473 76.5368 6.20683 80.481 8.6114 83.3686C12.0364 87.493 17.9323 88.8936 23.198 88.0021C28.4637 87.1107 33.1947 84.2515 37.4652 81.0261C44.688 75.582 51.0033 68.9325 56.6707 61.9616C55.5067 59.912 54.9978 57.5001 55.2272 55.1514C54.9385 55.3145 54.6505 55.4876 54.5935 55.2709L54.5943 55.2809Z" fill="#FAFAF8" stroke="#4D4D4D" stroke-miterlimit="10"/>
<path opacity="0.8" d="M53.5814 55.9524C49.3001 58.1337 44.5202 60.3638 39.892 59.1159C37.2955 58.4134 35.1008 56.675 32.6178 55.6221C25.0434 52.4028 15.8504 56.282 10.8656 62.8582C8.69676 65.7194 7.12138 69.107 6.75615 72.682C6.39093 76.257 7.29732 80.0346 9.60192 82.7993C12.8816 86.734 18.5224 88.0841 23.5599 87.2305C28.5975 86.3769 33.1173 83.6446 37.2082 80.5638C44.1077 75.3558 50.1651 69.0077 55.5754 62.3481C54.4683 60.3845 53.9779 58.0817 54.1951 55.8344C53.9164 55.9967 53.6468 56.1482 53.5814 55.9524Z" fill="#FAC342"/>
<path d="M15.2063 78.6364C16.4179 80.7827 19.0616 81.8332 21.5276 81.7622C23.9936 81.6911 26.326 80.676 28.5185 79.5411C31.995 77.7338 35.4312 75.4072 37.2001 71.9241C38.9789 68.4402 38.5196 63.5629 35.2728 61.3436C33.5218 60.1434 31.3021 59.8939 29.1856 59.9378C24.1113 60.0608 18.861 61.9256 15.755 65.9145C12.6489 69.9033 13.3653 75.3735 15.2063 78.6364Z" fill="#FAFAF8" stroke="#4D4D4D" stroke-miterlimit="10"/>
<path d="M67.0449 67.5956C64.4654 71.8953 61.7764 76.7258 62.7513 81.6434C63.2973 84.4041 64.9517 86.8175 65.8718 89.4787C68.6838 97.6093 63.9608 106.908 56.7321 111.629C53.5862 113.682 49.9373 115.081 46.1791 115.202C42.4209 115.323 38.5379 114.098 35.8248 111.506C31.9499 107.798 30.9627 101.816 32.2178 96.635C33.4722 91.4437 36.6577 86.9262 40.1717 82.8855C46.1019 76.065 53.173 70.2207 60.5174 65.0486C62.4775 66.3531 64.8603 67.0219 67.2165 66.9594C67.027 67.2353 66.8474 67.5105 67.0541 67.5849L67.0449 67.5956Z" fill="#FAFAF8" stroke="#4D4D4D" stroke-miterlimit="10"/>
<path opacity="0.8" d="M66.3058 68.5573C63.8329 72.6778 61.2674 77.2878 62.206 81.9973C62.7228 84.6397 64.3087 86.9478 65.1896 89.4916C67.8837 97.2696 63.361 106.171 56.4579 110.686C53.4555 112.647 49.9625 113.984 46.3649 114.103C42.7672 114.221 39.0687 113.042 36.4747 110.561C32.7736 107.021 31.8265 101.297 33.0281 96.3309C34.2296 91.3647 37.2693 87.0394 40.6267 83.1817C46.2983 76.6525 53.0577 71.0636 60.068 66.1183C61.9427 67.3591 64.2134 68.0066 66.469 67.9418C66.2886 68.207 66.1183 68.4714 66.315 68.5466L66.3058 68.5573Z" fill="#FAC342"/>
<path d="M40.9964 105.266C38.9318 103.91 38.0685 101.204 38.3194 98.743C38.5602 96.2828 39.7416 94.0309 41.0245 91.9218C43.0655 88.5784 45.6251 85.3151 49.2239 83.7897C52.822 82.2542 57.6565 83.0541 59.6481 86.4459C60.7243 88.2712 60.8182 90.5144 60.6201 92.6196C60.1485 97.6697 57.923 102.776 53.722 105.604C49.5211 108.432 44.1202 107.324 40.9964 105.266Z" fill="#FAFAF8" stroke="#4D4D4D" stroke-miterlimit="10"/>
<circle cx="70.1177" cy="55.0925" r="1.50336" fill="#D9D9D9" stroke="#6B6A67"/>
</g>
<defs>
<clipPath id="clip0_220_4731">
<rect width="127.72" height="108.89" fill="white" transform="translate(0 9.91086) scale(1.00168) rotate(-4.44304)"/>
</clipPath>
</defs>
</svg>
