<svg width="301" height="179" viewBox="0 0 301 179" fill="none" xmlns="http://www.w3.org/2000/svg">
<g clip-path="url(#clip0_220_4759)">
<path d="M236.846 16.323C235.143 15.7366 233.091 17.2086 233.047 19.0106C233.003 20.8126 234.896 22.3758 236.671 22.0601C238.445 21.7445 239.665 19.6788 239.16 17.9478C238.924 17.132 238.318 16.3836 237.493 16.16C236.668 15.9363 235.676 16.3564 236.846 16.323Z" fill="#FDFDFD"/>
<path d="M236.037 16.8895C235.476 14.3491 234.914 11.7687 235.092 9.17353C235.27 6.57834 236.288 3.92635 238.348 2.34421C240.407 0.762077 243.636 0.607482 245.514 2.41112C247.044 3.88147 247.353 6.30683 246.733 8.34049C246.113 10.3741 244.686 12.0537 243.124 13.4958C241.561 14.9379 239.835 16.1832 236.047 16.8893L236.037 16.8895Z" fill="#FDFDFD"/>
<path d="M235.833 16.6935C234.289 12.5217 230.679 9.16167 226.402 7.93634C224.46 7.37479 222.236 7.27914 220.537 8.37377C218.038 9.9847 217.654 13.8148 219.285 16.3138C220.916 18.8128 224.022 20.0215 226.995 20.0821C229.968 20.1428 232.871 19.2042 235.833 16.6935Z" fill="#FDFDFD"/>
<path d="M233.547 19.9812C228.805 20.5562 224.8 24.889 224.605 29.6659C224.538 31.3482 225.108 33.2981 226.671 33.9173C228.154 34.498 229.777 33.625 231.09 32.7382C233.223 31.3147 235.323 29.7318 236.721 27.5825C238.119 25.4333 238.693 22.6 233.537 19.9714L233.547 19.9812Z" fill="#FDFDFD"/>
<path d="M236.761 19.6067C235.894 19.7742 235.404 20.7746 235.482 21.6536C235.559 22.5326 236.055 23.3132 236.54 24.044C237.964 26.1969 239.499 28.3976 241.726 29.6939C243.953 30.9902 247.078 31.1379 248.924 29.3399C250.671 27.644 250.711 24.6713 249.429 22.5956C248.147 20.5199 245.801 19.296 243.42 18.8032C241.038 18.3105 238.57 18.4799 236.761 19.6067Z" fill="#FDFDFD"/>
<path d="M237.598 14.8771C240.075 11.1552 245.409 9.67778 249.449 11.5683C251.257 12.4127 252.925 14.2505 252.494 16.2104C252.1 18.0194 250.188 18.9982 248.45 19.6433C246.433 20.394 244.365 21.0258 242.274 21.5378C240.989 21.8537 239.623 22.1111 238.355 21.7162C237.086 21.3213 234.595 19.3699 237.588 14.8873L237.598 14.8771Z" fill="#FDFDFD"/>
<path d="M256.633 26.0739C254.93 25.4875 252.878 26.9594 252.834 28.7614C252.79 30.5635 254.683 32.1266 256.458 31.811C258.232 31.4953 259.452 29.4297 258.947 27.6987C258.711 26.8829 258.105 26.1345 257.28 25.9108C256.455 25.6872 255.463 26.1073 256.633 26.0739Z" fill="#FDFDFD"/>
<path d="M255.824 26.6404C255.263 24.1 254.701 21.5196 254.879 18.9244C255.057 16.3292 256.075 13.6772 258.135 12.0951C260.194 10.513 263.423 10.3584 265.301 12.162C266.831 13.6324 267.14 16.0577 266.52 18.0914C265.9 20.125 264.473 21.8046 262.911 23.2467C261.348 24.6888 259.622 25.9341 255.834 26.6402L255.824 26.6404Z" fill="#FDFDFD"/>
<path d="M255.62 26.4443C254.076 22.2726 250.466 18.9126 246.189 17.6872C244.247 17.1257 242.023 17.03 240.324 18.1246C237.825 19.7356 237.441 23.5657 239.072 26.0646C240.703 28.5636 243.809 29.7724 246.782 29.833C249.755 29.8937 252.658 28.9551 255.62 26.4443Z" fill="#FDFDFD"/>
<path d="M253.334 29.732C248.593 30.3071 244.587 34.6399 244.392 39.4167C244.326 41.0991 244.895 43.049 246.458 43.6681C247.941 44.2489 249.564 43.3759 250.878 42.4891C253.01 41.0656 255.11 39.4827 256.508 37.3334C257.906 35.1841 258.48 32.3509 253.324 29.7222L253.334 29.732Z" fill="#FDFDFD"/>
<path d="M256.549 29.3576C255.682 29.5251 255.191 30.5255 255.269 31.4045C255.346 32.2835 255.842 33.0641 256.327 33.7948C257.751 35.9477 259.286 38.1485 261.513 39.4448C263.741 40.7411 266.866 40.8888 268.711 39.0908C270.458 37.3948 270.499 34.4222 269.216 32.3465C267.934 30.2708 265.588 29.0469 263.207 28.5541C260.826 28.0614 258.357 28.2308 256.549 29.3576Z" fill="#FDFDFD"/>
<path d="M257.385 24.6279C259.862 20.9061 265.196 19.4287 269.236 21.3191C271.044 22.1636 272.712 24.0014 272.281 25.9612C271.887 27.7702 269.975 28.749 268.237 29.3942C266.22 30.1449 264.152 30.7766 262.061 31.2887C260.776 31.6046 259.41 31.862 258.142 31.4671C256.873 31.0722 254.383 29.1207 257.375 24.6381L257.385 24.6279Z" fill="#FDFDFD"/>
<path d="M275.83 33.335C274.368 32.7438 272.663 34.0587 272.676 35.7395C272.69 37.4203 274.331 38.9284 275.837 38.6782C277.343 38.4279 278.316 36.5373 277.843 34.9057C277.618 34.1398 277.083 33.43 276.378 33.1939C275.673 32.9579 274.84 33.3247 275.84 33.3348L275.83 33.335Z" fill="#FDFDFD"/>
<path d="M275.15 33.8488C274.612 31.4681 274.064 29.0475 274.145 26.6244C274.227 24.2012 275.018 21.7539 276.731 20.3388C278.444 18.9237 281.185 18.8589 282.82 20.5873C284.159 22.0014 284.485 24.2664 284.012 26.147C283.529 28.0178 282.369 29.562 281.084 30.8584C279.799 32.1549 278.361 33.2844 275.16 33.8386L275.15 33.8488Z" fill="#FDFDFD"/>
<path d="M274.976 33.6622C273.557 29.7281 270.401 26.5091 266.733 25.2516C265.071 24.6845 263.177 24.5322 261.755 25.5112C259.673 26.9537 259.444 30.5105 260.902 32.8829C262.36 35.2552 265.026 36.4627 267.55 36.6024C270.075 36.7421 272.52 35.9427 274.966 33.6724L274.976 33.6622Z" fill="#FDFDFD"/>
<path d="M273.125 36.6611C269.111 37.0715 265.827 41.0096 265.786 45.4632C265.777 47.0244 266.305 48.865 267.648 49.4785C268.92 50.0635 270.275 49.2859 271.37 48.4936C273.146 47.2173 274.889 45.8016 276.02 43.8378C277.152 41.8739 277.569 39.2439 273.115 36.6613L273.125 36.6611Z" fill="#FDFDFD"/>
<path d="M275.841 36.3967C275.114 36.5313 274.722 37.4497 274.808 38.2685C274.895 39.0873 275.34 39.8289 275.774 40.5306C277.036 42.5767 278.408 44.6706 280.335 45.9429C282.262 47.2152 284.918 47.4323 286.436 45.801C287.876 44.2612 287.831 41.4904 286.681 39.5221C285.531 37.5539 283.515 36.3434 281.474 35.8238C279.432 35.3043 277.342 35.3961 275.841 36.3967Z" fill="#FDFDFD"/>
<path d="M276.424 32.0123C278.437 28.6099 282.916 27.3697 286.405 29.2412C287.963 30.0806 289.429 31.8324 289.115 33.6498C288.828 35.3266 287.224 36.1892 285.775 36.7485C284.076 37.3928 282.346 37.9277 280.573 38.3434C279.488 38.5952 278.331 38.8085 277.252 38.4098C276.174 38.0111 273.995 36.1234 276.414 32.0225L276.424 32.0123Z" fill="#FDFDFD"/>
<path d="M287.653 45.6165C286.452 45.0902 285.093 46.188 285.121 47.6283C285.15 49.0687 286.507 50.3724 287.724 50.1779C288.941 49.9835 289.71 48.3872 289.301 46.9944C289.108 46.3379 288.666 45.7263 288.091 45.5177C287.517 45.309 286.842 45.6127 287.653 45.6265L287.653 45.6165Z" fill="#FDFDFD"/>
<path d="M287.121 46.0474C286.65 44.0055 286.178 41.9336 286.207 39.8718C286.236 37.8099 286.855 35.7362 288.222 34.5482C289.589 33.3601 291.81 33.3457 293.161 34.8397C294.266 36.0684 294.565 38.0036 294.197 39.602C293.838 41.1901 292.914 42.4894 291.885 43.5807C290.856 44.6719 289.704 45.6155 287.121 46.0474Z" fill="#FDFDFD"/>
<path d="M286.968 45.8804C285.76 42.5024 283.162 39.7125 280.168 38.5916C278.807 38.0785 277.273 37.929 276.139 38.7422C274.472 39.9463 274.332 42.981 275.544 45.018C276.755 47.0551 278.938 48.1322 280.992 48.2812C283.046 48.4303 285.015 47.7906 286.968 45.8804Z" fill="#FDFDFD"/>
<path d="M285.508 48.4211C282.252 48.7163 279.646 52.0304 279.672 55.8323C279.679 57.173 280.141 58.7448 281.242 59.2831C282.283 59.7926 283.371 59.1505 284.248 58.4926C285.668 57.4335 287.065 56.2449 287.952 54.5861C288.84 52.9274 289.145 50.6798 285.498 48.4213L285.508 48.4211Z" fill="#FDFDFD"/>
<path d="M287.715 48.2269C287.127 48.3387 286.822 49.1053 286.907 49.8141C286.991 50.5228 287.354 51.156 287.716 51.7491C288.771 53.5091 289.908 55.3176 291.481 56.4268C293.065 57.5359 295.22 57.753 296.434 56.3879C297.579 55.0942 297.511 52.7241 296.547 51.0423C295.583 49.3605 293.941 48.2926 292.27 47.8157C290.599 47.3387 288.909 47.3925 287.705 48.2271L287.715 48.2269Z" fill="#FDFDFD"/>
<path d="M288.131 44.4963C289.714 41.6228 293.337 40.6198 296.191 42.2639C297.467 42.9988 298.678 44.5156 298.449 46.0612C298.237 47.4863 296.95 48.2024 295.779 48.6561C294.408 49.1838 293.016 49.6219 291.582 49.9508C290.706 50.1584 289.768 50.3172 288.89 49.9545C288.013 49.5918 286.219 47.9566 288.131 44.4863L288.131 44.4963Z" fill="#FDFDFD"/>
<path d="M222.634 114.809C211.405 114.703 201.301 117.296 192.371 124.089" stroke="#373E3E" stroke-width="1.00043" stroke-miterlimit="10"/>
<path d="M60.9946 162.457C62.6405 163.205 64.8165 161.931 65.0309 160.145C65.2452 158.35 63.5094 156.613 61.7114 156.769C59.9134 156.925 58.5011 158.855 58.8467 160.629C59.0035 161.466 59.5398 162.266 60.3364 162.571C61.133 162.875 62.167 162.544 60.9948 162.467L60.9946 162.457Z" fill="white"/>
<path d="M61.8553 161.96C62.1671 164.545 62.4795 167.161 62.0606 169.731C61.6417 172.301 60.3718 174.848 58.1678 176.222C55.9639 177.597 52.739 177.452 51.0484 175.474C49.6653 173.861 49.5865 171.421 50.3979 169.463C51.2094 167.506 52.7895 165.963 54.4849 164.679C56.1803 163.394 58.02 162.317 61.8555 161.97L61.8553 161.96Z" fill="white"/>
<path d="M62.0396 162.176C63.1762 166.476 66.4519 170.163 70.597 171.791C72.4831 172.534 74.6806 172.84 76.4832 171.914C79.1276 170.55 79.8726 166.773 78.4889 164.129C77.1053 161.485 74.1234 159.984 71.1647 159.642C68.2061 159.301 65.2272 159.951 62.0396 162.176Z" fill="white"/>
<path d="M74.3786 148.221C74.1687 147.235 73.6808 146.354 72.8015 145.911C71.3861 145.189 69.6895 145.913 68.2836 146.662C67.2936 147.192 66.3043 147.762 65.3765 148.401L74.3786 148.221Z" fill="white"/>
<path d="M64.0062 149.429C63.3469 149.983 62.7283 150.575 62.1916 151.256C60.6006 153.259 59.7454 156.028 64.6305 159.133C69.4112 159.017 73.8052 155.077 74.451 150.341C74.5038 149.98 74.5162 149.599 74.4986 149.219L64.0062 149.429Z" fill="white"/>
<path d="M58.4149 149.541L55.2942 149.603C54.6541 149.616 54.6341 148.616 55.2742 148.603L57.2047 148.564C55.1152 147.155 52.1459 146.784 50.1961 148.354C48.2954 149.883 47.9741 152.831 49.0585 155.021C50.1427 157.201 52.3532 158.658 54.6789 159.372C57.0047 160.086 59.4776 160.156 61.3799 159.208C62.2587 159.12 62.8402 158.178 62.8526 157.297C62.8551 156.416 62.4384 155.594 62.0225 154.812C61.0241 152.921 59.9353 151.011 58.4051 149.551L58.4149 149.541Z" fill="white"/>
<path d="M60.1112 163.816C57.2887 167.284 51.8446 168.254 47.9968 165.979C46.2754 164.963 44.7949 162.981 45.407 161.068C45.9722 159.305 47.9676 158.515 49.7591 158.029C51.8393 157.477 53.952 157.045 56.0871 156.732C57.3942 156.546 58.7825 156.418 60.0036 156.934C61.2247 157.45 63.5296 159.625 60.121 163.806L60.1112 163.816Z" fill="white"/>
<path d="M42.2313 150.865C43.8773 151.612 46.0532 150.338 46.2676 148.553C46.4819 146.757 44.7461 145.021 42.9481 145.177C41.1501 145.333 39.7378 147.262 40.0834 149.037C40.2402 149.874 40.7766 150.674 41.5731 150.978C42.3697 151.282 43.4038 150.951 42.2315 150.875L42.2313 150.865Z" fill="white"/>
<path d="M43.0921 150.377C43.4039 152.963 43.7164 155.578 43.2974 158.148C42.8785 160.718 41.6086 163.265 39.4047 164.64C37.2007 166.015 33.9758 165.869 32.2853 163.892C30.9022 162.278 30.8234 159.838 31.6348 157.881C32.4462 155.924 34.0264 154.381 35.7218 153.096C37.4172 151.812 39.2568 150.734 43.0923 150.387L43.0921 150.377Z" fill="white"/>
<path d="M56.8447 149.572L55.3043 149.603C54.7742 149.614 54.6706 148.935 55.0161 148.698C54.1693 148.385 53.2843 148.162 52.3917 148.06C49.433 147.719 46.4541 148.369 43.2666 150.594C44.4032 154.894 47.6789 158.581 51.824 160.209C53.71 160.952 55.9075 161.258 57.7101 160.332C60.3546 158.968 61.0996 155.191 59.7159 152.547C59.0606 151.299 58.0401 150.309 56.8447 149.572Z" fill="white"/>
<path d="M45.8572 147.54C50.6378 147.425 55.0319 143.485 55.6777 138.749C55.9046 137.083 55.5243 135.079 54.0282 134.319C52.6129 133.597 50.9163 134.321 49.5103 135.07C47.2532 136.285 45.0093 137.661 43.4183 139.664C41.8273 141.667 40.9721 144.436 45.8572 147.54Z" fill="white"/>
<path d="M42.6264 147.605C43.5052 147.517 44.0867 146.575 44.0991 145.694C44.1116 144.814 43.6849 143.992 43.269 143.209C42.0527 140.932 40.7353 138.597 38.6438 137.088C36.5524 135.579 33.4516 135.14 31.4428 136.762C29.5421 138.29 29.2208 141.239 30.3052 143.428C31.3896 145.618 33.5999 147.065 35.9257 147.779C38.2514 148.493 40.7243 148.564 42.6266 147.615L42.6264 147.605Z" fill="white"/>
<path d="M41.3379 152.224C38.5154 155.692 33.0713 156.661 29.2235 154.387C27.5021 153.371 26.0216 151.389 26.6337 149.476C27.1989 147.713 29.1943 146.923 30.9858 146.437C33.066 145.885 35.1787 145.452 37.3138 145.139C38.6209 144.953 40.0092 144.825 41.2303 145.341C42.4514 145.857 44.7563 148.033 41.3477 152.213L41.3379 152.224Z" fill="white"/>
<path d="M23.8087 141.807C25.2143 142.54 27.0323 141.383 27.1789 139.709C27.3256 138.035 25.8315 136.373 24.3127 136.484C22.794 136.594 21.6389 138.378 21.9623 140.043C22.1082 140.831 22.5737 141.592 23.26 141.888C23.9464 142.185 24.8012 141.897 23.8087 141.807Z" fill="white"/>
<path d="M24.5303 141.363C24.839 143.788 25.1584 146.253 24.8461 148.651C24.5338 151.049 23.5104 153.41 21.6741 154.658C19.8379 155.905 17.1023 155.71 15.6438 153.828C14.4523 152.291 14.3365 150.002 14.9905 148.177C15.6444 146.353 16.947 144.936 18.3545 143.767C19.762 142.599 21.2934 141.617 24.5403 141.362L24.5303 141.363Z" fill="white"/>
<path d="M24.6846 141.57C25.7262 145.621 28.558 149.127 32.0922 150.727C33.6977 151.456 35.5655 151.789 37.0697 150.948C39.2764 149.713 39.8464 146.19 38.6257 143.692C37.4051 141.195 34.8643 139.735 32.3552 139.355C29.846 138.975 27.3456 139.535 24.6944 141.559L24.6846 141.57Z" fill="white"/>
<path d="M46.1032 148.836C47.1448 152.888 49.9766 156.394 53.5107 157.994C55.1163 158.722 56.9841 159.055 58.4883 158.215C60.695 156.98 61.265 153.456 60.0443 150.959C58.8237 148.462 56.2829 147.002 53.7738 146.622C51.2646 146.242 48.7642 146.802 46.113 148.826L46.1032 148.836Z" fill="white"/>
<path d="M26.8197 138.755C30.8619 138.734 34.5019 135.119 34.9639 130.697C35.1229 129.143 34.7751 127.259 33.4894 126.514C32.2747 125.818 30.8566 126.457 29.6895 127.14C27.8003 128.239 25.934 129.487 24.6201 131.334C23.3062 133.182 22.6474 135.767 26.8297 138.755L26.8197 138.755Z" fill="white"/>
<path d="M24.088 138.76C24.8272 138.695 25.3101 137.825 25.2935 136.995C25.2769 136.164 24.9113 135.391 24.5464 134.658C23.4826 132.498 22.3177 130.29 20.5275 128.835C18.7273 127.38 16.1066 126.922 14.435 128.396C12.8618 129.788 12.6369 132.555 13.5887 134.617C14.5405 136.679 16.4397 138.082 18.4251 138.793C20.4106 139.504 22.4941 139.612 24.088 138.76Z" fill="white"/>
<path d="M23.0836 143.072C20.756 146.271 16.1794 147.083 12.8832 144.877C11.4127 143.896 10.1243 142.011 10.599 140.23C11.0465 138.59 12.7233 137.876 14.216 137.466C15.9674 136.981 17.7413 136.615 19.5375 136.369C20.6451 136.217 21.814 136.123 22.8546 136.623C23.8953 137.122 25.8783 139.214 23.0734 143.063L23.0836 143.072Z" fill="white"/>
<path d="M13.2054 128.451C14.3488 129.088 15.8104 128.118 15.9118 126.685C16.0133 125.252 14.794 123.826 13.5647 123.901C12.3354 123.975 11.4152 125.494 11.6939 126.92C11.8275 127.598 12.2108 128.25 12.7563 128.51C13.3018 128.769 14.0076 128.535 13.2052 128.441L13.2054 128.451Z" fill="white"/>
<path d="M13.7783 128.079C14.0499 130.155 14.3321 132.26 14.1031 134.316C13.874 136.372 13.0736 138.379 11.5936 139.43C10.1137 140.48 7.90836 140.284 6.70531 138.667C5.7283 137.346 5.6091 135.387 6.11843 133.836C6.62777 132.284 7.67442 131.083 8.80529 130.089C9.93616 129.096 11.1705 128.271 13.7785 128.089L13.7783 128.079Z" fill="white"/>
<path d="M13.9119 128.256C14.7919 131.731 17.1137 134.756 19.9836 136.16C21.2871 136.794 22.804 137.094 24.0107 136.39C25.7911 135.353 26.2113 132.343 25.1979 130.202C24.1844 128.061 22.1176 126.781 20.0893 126.432C18.0611 126.082 16.039 126.543 13.9117 128.246L13.9119 128.256Z" fill="white"/>
<path d="M15.6053 125.871C18.8677 125.886 21.7886 122.836 22.1133 119.057C22.2267 117.724 21.9245 116.119 20.8808 115.469C19.898 114.858 18.748 115.392 17.8089 115.971C16.2964 116.892 14.7864 117.942 13.7472 119.514C12.7079 121.086 12.1916 123.288 15.6055 125.881L15.6053 125.871Z" fill="white"/>
<path d="M13.3936 125.855C13.9929 125.803 14.3684 125.065 14.3542 124.355C14.34 123.645 14.0365 122.981 13.7337 122.346C12.8561 120.493 11.8975 118.591 10.4314 117.329C8.96526 116.068 6.83558 115.65 5.49966 116.897C4.23236 118.073 4.07949 120.438 4.87545 122.213C5.67141 123.988 7.21655 125.198 8.82011 125.827C10.4237 126.455 12.1171 126.571 13.4034 125.845L13.3936 125.855Z" fill="white"/>
<path d="M12.6264 129.523C10.7794 132.231 7.0801 132.886 4.39031 130.978C3.19245 130.122 2.12942 128.502 2.49933 126.984C2.84162 125.586 4.19074 124.998 5.40462 124.654C6.81755 124.256 8.25248 123.957 9.69961 123.768C10.5878 123.65 11.537 123.581 12.3862 124.014C13.2354 124.447 14.8526 126.256 12.6264 129.523Z" fill="white"/>
<path d="M236.692 117.269C252.638 121.574 265.13 133.812 267.821 147.777" stroke="#373E3E" stroke-width="0.91039" stroke-miterlimit="10"/>
<path d="M64.6283 159.023C69.4089 158.907 73.803 154.967 74.4488 150.231C74.6757 148.565 74.2954 146.562 72.7993 145.801C71.384 145.079 69.6874 145.803 68.2814 146.552C66.0243 147.768 63.7804 149.143 62.1894 151.146C60.5984 153.149 59.7432 155.918 64.6283 159.023Z" fill="white"/>
<path d="M174.624 121.832C191.109 123.054 207.639 134.04 214.664 149.079" stroke="#373E3E" stroke-width="0.970416" stroke-miterlimit="10"/>
<path d="M101.147 122.76C80.3722 123.176 63.0583 134.038 57.7049 148.554L112.827 147.453C116.851 141.018 121.931 135.833 127.865 131.352C128.444 130.78 129.064 130.247 129.714 129.724C121.808 125.169 111.879 122.546 101.137 122.761L101.147 122.76Z" fill="#7BABDC"/>
<path d="M218.031 147.831C218.165 148.029 218.309 148.216 218.443 148.414C223.284 148.317 228.136 148.24 232.977 148.173C243.051 148.042 253.116 147.951 263.19 147.849C264.24 147.828 265.301 147.827 266.351 147.816C260.738 129.307 242.54 115.942 221.205 116.368C211.142 116.569 201.911 119.816 194.443 125.138C194.646 125.304 194.84 125.471 195.043 125.637C197.735 127.154 200.37 128.782 202.76 130.726C205.73 133.138 208.427 135.906 210.917 138.818C212.167 140.284 213.377 141.781 214.588 143.277C215.204 144.035 215.819 144.784 216.434 145.532C217.019 146.241 217.486 147.072 218.021 147.822L218.031 147.831Z" fill="#C7AFD4"/>
<path d="M83.5353 118.229C84.5061 119.741 84.6712 121.489 85.672 123C87.1889 125.301 90.7111 126.801 94.2195 126.611C95.9787 126.516 97.8189 125.969 98.7473 124.86C99.764 123.659 99.4931 122.123 99.1853 120.738C98.767 118.835 98.3389 116.943 98.5706 115.017L98.5722 115.097" fill="#F0E5D9"/>
<path d="M83.5353 118.229C84.5061 119.741 84.6712 121.489 85.672 123C87.1889 125.301 90.7111 126.801 94.2195 126.611C95.9787 126.516 97.8189 125.969 98.7473 124.86C99.764 123.659 99.4931 122.123 99.1853 120.738C98.767 118.835 98.3389 116.943 98.5706 115.017L98.5722 115.097" stroke="#373E3E" stroke-width="1.00043" stroke-miterlimit="10"/>
<path d="M237.577 112.459C236.766 113.956 236.68 115.649 235.849 117.146C234.584 119.423 231.493 120.996 228.361 120.958C226.789 120.94 225.129 120.472 224.248 119.439C223.295 118.318 223.485 116.833 223.708 115.478C224.012 113.63 224.315 111.783 224.048 109.927L224.049 110.007" fill="#F0E5D9"/>
<path d="M237.577 112.459C236.766 113.956 236.68 115.649 235.849 117.146C234.584 119.423 231.493 120.996 228.361 120.958C226.789 120.94 225.129 120.472 224.248 119.439C223.295 118.318 223.485 116.833 223.708 115.478C224.012 113.63 224.315 111.783 224.048 109.927L224.049 110.007" stroke="#373E3E" stroke-width="1.00043" stroke-miterlimit="10"/>
<path d="M206.313 90.2393C204.46 90.1362 202.651 91.253 202.083 92.8654C201.515 94.4778 202.244 96.4244 203.775 97.4345C205.306 98.4345 207.527 98.4001 208.524 97.7298C209.972 102.554 214.242 106.441 219.129 108.665C224.017 110.889 229.495 111.65 234.875 111.962C239.223 112.216 243.715 112.166 247.687 110.636C251.659 109.115 255.035 105.836 255.15 102.061C257.304 102.208 259.711 101.97 261.052 100.452C262.451 98.8833 262.162 96.4276 260.936 94.661C260.318 93.7627 259.421 92.9601 258.305 92.7023C257.189 92.4444 255.878 92.9109 255.528 93.4582C257.083 84.1113 252.825 73.8299 244.492 67.9727C236.16 62.1154 224.054 61.1966 215.428 66.1421C206.801 71.0875 202.532 81.7595 206.313 90.2293L206.313 90.2393Z" fill="#FFF0DC" stroke="#373E3E" stroke-miterlimit="10"/>
<path d="M125.47 103.132C123.632 104.26 122.566 106.512 122.839 108.658C123.112 110.804 124.671 112.714 126.697 113.444C128.723 114.174 131.125 113.726 132.472 112.008C134.506 116.66 138.896 120.005 143.711 121.639C148.527 123.274 153.732 123.35 158.785 122.839C164.926 122.216 171.04 120.723 176.434 117.733C181.828 114.744 186.459 110.158 188.585 104.372C190.219 105.02 192.212 104.63 193.479 103.424C194.745 102.218 195.246 100.247 194.683 98.5868C194.119 96.927 192.543 95.6477 190.269 95.5031C191.011 93.0767 188.854 90.7984 186.851 89.2474C178.009 82.4097 167.065 77.045 156.01 78.6468C150.164 79.4941 144.775 82.2235 139.515 84.9102C135.494 86.9618 131.374 89.0955 128.338 92.4382C126.018 94.9961 124.478 99.0495 126.554 101.81C126.049 102.53 125.542 103.241 125.49 103.142L125.47 103.132Z" stroke="#373E3E" stroke-miterlimit="10"/>
<path d="M126.49 102.612C124.711 103.688 123.673 105.85 123.934 107.886C124.195 109.922 125.703 111.763 127.668 112.464C129.633 113.165 131.956 112.729 133.264 111.092C135.234 115.535 139.491 118.732 144.155 120.29C148.819 121.848 153.863 121.917 158.756 121.429C164.708 120.83 170.643 119.4 175.87 116.544C181.096 113.688 185.591 109.305 187.652 103.771C189.235 104.389 191.169 104.02 192.397 102.865C193.624 101.71 194.107 99.8291 193.565 98.2389C193.023 96.6488 191.498 95.4285 189.284 95.2926C190.008 92.9767 187.913 90.7972 185.972 89.315C177.406 82.792 166.797 77.6607 156.081 79.1957C150.414 80.0094 145.193 82.6154 140.091 85.1889C136.188 87.1581 132.206 89.1889 129.258 92.3898C127.005 94.8363 125.512 98.7086 127.526 101.34C127.039 102.02 126.542 102.711 126.49 102.612Z" fill="#FFECDA"/>
<path d="M147.992 106.044C147.413 107.607 146.542 109.075 145.436 110.328" stroke="#373E3E" stroke-width="1.00043" stroke-miterlimit="10"/>
<path d="M147.082 108.574C153.106 112.056 161.048 111.917 166.844 108.049" stroke="#373E3E" stroke-width="1.00043" stroke-miterlimit="10"/>
<path d="M165.726 106.15C166.426 107.617 167.69 108.802 169.193 109.413" stroke="#373E3E" stroke-width="1.00043" stroke-miterlimit="10"/>
<path d="M54.7103 57.3069C51.0834 60.5814 47.573 58.17 46.8631 59.1948C46.2215 60.1382 51.6103 60.911 50.8695 61.3961C49.6745 62.1805 36.3962 67.1889 40.1058 85.5763C40.1058 85.5763 42.5448 92.9622 43.9159 94.9761C45.5245 97.3555 53.7903 100.392 51.8393 101.902C51.8393 101.902 57.3866 98.089 57.8483 99.1604C57.8483 99.1604 63.6646 95.7922 63.1187 94.5123C63.1187 94.5123 77.5261 88.4206 77.4429 84.2597C77.4429 84.2597 83.1836 86.6165 85.6832 84.0149C85.6832 84.0149 95.0227 86.7001 98.3333 83.622C98.3333 83.622 106.452 78.7868 108.132 91.7814C108.132 91.7814 117.925 83.5806 114.952 71.5125C114.952 71.5125 111.21 57.5384 102.347 55.6543C102.347 55.6543 106.407 51.0103 105.205 51.4345C100.426 53.1511 92.5036 50.7778 92.5036 50.7778C92.5036 50.7778 73.6654 42.4489 60.3686 52.0405L54.7103 57.3069Z" stroke="#373E3E" stroke-miterlimit="10"/>
<path opacity="0.97" d="M52.3449 101.162C51.2414 101.024 50.2066 101.815 49.625 102.757C48.6556 104.317 48.5871 106.4 49.4601 108.024C50.3331 109.647 52.1059 110.732 53.9481 110.786C55.7903 110.839 57.6214 109.832 58.9879 108.113C61.2988 113.09 66.1714 116.575 71.445 118.091C76.7186 119.606 82.3661 119.303 87.7479 118.225C92.6613 117.236 97.5108 115.558 101.575 112.625C105.639 109.692 108.865 105.415 109.799 100.564C111.724 101.256 114.078 100.388 115.103 98.6164C116.129 96.8448 115.699 94.3719 114.142 93.0522C112.584 91.7324 110.072 91.7126 108.497 93.0049C108.476 92.4649 108.446 91.9252 108.517 91.5035C108.234 86.8263 106.401 82.26 103.368 78.6983C100.335 75.1367 96.1216 72.5893 91.2559 71.4557C80.0481 71.9199 69.1154 77.1316 61.699 85.555C57.5114 90.3116 54.4526 95.9763 52.3647 101.151L52.3449 101.162Z" fill="#F2E5D7" stroke="#373E3E" stroke-miterlimit="10"/>
<path d="M55.5167 58.1013C52.0169 61.2232 48.6289 58.9294 47.948 59.9036C47.3256 60.8066 52.5236 61.5432 51.8122 61.9977C50.6564 62.7413 37.8538 67.52 41.4264 85.0597C41.4264 85.0597 43.7784 92.0971 45.0979 94.032C46.6542 96.3023 54.617 99.1951 52.7448 100.643C52.7448 100.643 58.0954 97.0042 58.5361 98.026C58.5361 98.026 64.1454 94.812 63.6207 93.5917C63.6207 93.5917 77.5234 87.7803 77.444 83.8094C77.444 83.8094 82.9825 86.0602 85.3942 83.5705C85.3942 83.5705 94.4011 86.1322 97.5942 83.1865C97.5942 83.1865 105.427 78.5772 107.046 90.9726C107.046 90.9726 116.495 83.149 113.624 71.6391C113.624 71.6391 110.015 58.3028 101.474 56.5123C101.474 56.5123 105.388 52.0813 104.235 52.4846C99.6248 54.1177 91.9849 51.8589 91.9849 51.8589C91.9849 51.8589 73.8149 43.9169 60.9896 53.0688L55.5365 58.0909L55.5167 58.1013Z" fill="#373E3E"/>
<path d="M86.48 95.3361C87.4014 95.3777 88.2188 96.2219 88.2272 97.1424C88.2355 98.0628 87.4422 98.9191 86.5127 98.9777C85.5833 99.0363 84.6879 98.2938 84.5795 97.3754C84.4711 96.4569 85.1579 95.2725 86.48 95.3361Z" fill="#373E3E"/>
<path d="M86.48 95.3361C87.4014 95.3777 88.2188 96.2219 88.2272 97.1424C88.2355 98.0628 87.4422 98.9191 86.5127 98.9777C85.5833 99.0363 84.6879 98.2938 84.5795 97.3754C84.4711 96.4569 85.1579 95.2725 86.48 95.3361Z" fill="#373E3E"/>
<path d="M95.1954 93.3308C96.1168 93.3724 96.9342 94.2166 96.9426 95.137C96.9509 96.0574 96.1576 96.9138 95.2281 96.9724C94.2987 97.031 93.4033 96.2885 93.2949 95.37C93.1865 94.4516 93.8733 93.2672 95.1954 93.3308Z" fill="#373E3E"/>
<path d="M151.914 98.4911C153.116 98.5471 154.168 99.6168 154.181 100.787C154.195 101.958 153.156 103.049 151.956 103.123C150.757 103.197 149.588 102.25 149.444 101.082C149.301 99.9142 150.191 98.4055 151.914 98.4811L151.914 98.4911Z" fill="#373E3E"/>
<path d="M216.866 86.5461C217.958 86.6044 218.919 87.6358 218.932 88.7663C218.944 89.8967 217.995 90.9564 216.906 91.0282C215.817 91.1 214.748 90.1807 214.615 89.0527C214.482 87.9246 215.294 86.4675 216.866 86.5461Z" fill="#373E3E"/>
<path d="M227.323 88.5485C228.414 88.6067 229.376 89.6382 229.388 90.7687C229.401 91.8991 228.451 92.9587 227.362 93.0305C226.273 93.1023 225.204 92.1831 225.071 91.0551C224.939 89.927 225.75 88.4699 227.323 88.5485Z" fill="#373E3E"/>
<path d="M163.917 98.2512C165.119 98.3072 166.171 99.3769 166.184 100.547C166.198 101.718 165.159 102.809 163.959 102.883C162.76 102.957 161.59 102.01 161.447 100.842C161.304 99.6743 162.194 98.1655 163.917 98.2412L163.917 98.2512Z" fill="#373E3E"/>
<path d="M83.8918 102.522C88.9838 104.462 95.0274 102.95 98.8267 98.7917" stroke="#373E3F" stroke-width="1.00043" stroke-miterlimit="10"/>
<path d="M83.9768 101.27C84.0765 102.248 84.0164 103.25 83.7956 104.215" stroke="#373E3F" stroke-width="1.00043" stroke-miterlimit="10"/>
<path d="M78.1141 100.316C76.696 99.9545 75.1112 100.767 74.3884 102.152C73.6656 103.537 73.8025 105.376 74.6492 106.69C75.496 108.004 76.9719 108.755 78.4321 108.715C79.8824 108.686 81.3463 107.837 81.9783 106.413C82.6393 104.939 82.2914 103.055 81.2962 101.824C80.301 100.593 78.7579 99.9833 78.1141 100.316Z" stroke="#373E3E" stroke-miterlimit="10"/>
<path opacity="0.64" d="M76.8728 100.791C75.5055 100.469 73.9789 101.19 73.2832 102.424C72.5874 103.659 72.7102 105.297 73.524 106.462C74.3377 107.626 75.7621 108.298 77.1722 108.26C78.5725 108.232 79.9782 107.474 80.6034 106.21C81.2375 104.897 80.9139 103.222 79.9513 102.121C78.9887 101.019 77.4971 100.489 76.8826 100.781L76.8728 100.791Z" fill="#E17D6C"/>
<path opacity="0.64" d="M138.973 103.333C137.605 103.01 136.079 103.731 135.383 104.965C134.687 106.2 134.81 107.839 135.624 109.003C136.438 110.168 137.862 110.84 139.272 110.801C140.672 110.773 142.078 110.015 142.703 108.751C143.337 107.438 143.014 105.763 142.051 104.662C141.089 103.56 139.597 103.03 138.982 103.322L138.973 103.333Z" fill="#E17D6C"/>
<path opacity="0.64" d="M174.437 100.462C173.311 100.175 172.063 100.81 171.494 101.882C170.925 102.954 171.034 104.383 171.694 105.39C172.355 106.408 173.527 106.985 174.677 106.962C175.818 106.939 176.975 106.285 177.484 105.185C178.001 104.043 177.732 102.588 176.942 101.633C176.153 100.678 174.933 100.212 174.427 100.463L174.437 100.462Z" fill="#E17D6C"/>
<path opacity="0.64" d="M234.036 92.487C233.009 92.2073 231.881 92.8202 231.361 93.8512C230.842 94.8923 230.939 96.2612 231.549 97.2396C232.159 98.218 233.221 98.7872 234.271 98.7562C235.311 98.7354 236.369 98.1039 236.818 97.0442C237.297 95.944 237.038 94.5383 236.319 93.612C235.601 92.6858 234.491 92.2377 234.025 92.4772L234.036 92.487Z" fill="#E17D6C"/>
<path opacity="0.64" d="M211.457 89.7663C210.431 89.4866 209.302 90.0995 208.783 91.1305C208.263 92.1716 208.361 93.5405 208.97 94.5189C209.58 95.4973 210.642 96.0665 211.692 96.0355C212.733 96.0147 213.791 95.3832 214.24 94.3235C214.718 93.2233 214.46 91.8176 213.741 90.8913C213.022 89.9651 211.912 89.517 211.447 89.7565L211.457 89.7663Z" fill="#E17D6C"/>
<path opacity="0.67" d="M104.365 95.0487C103.209 94.7516 101.931 95.4075 101.343 96.51C100.754 97.6124 100.864 99.0812 101.545 100.128C102.226 101.175 103.429 101.772 104.619 101.748C105.79 101.724 106.987 101.05 107.504 99.909C108.041 98.7376 107.761 97.2322 106.951 96.2478C106.141 95.2633 104.89 94.778 104.365 95.0487Z" fill="#E17D6C"/>
<path d="M105.055 93.9943C103.596 93.6232 101.972 94.4561 101.24 95.8717C100.508 97.2872 100.636 99.1758 101.503 100.509C102.37 101.843 103.886 102.623 105.387 102.583C106.867 102.553 108.37 101.683 109.022 100.229C109.702 98.7244 109.343 96.7904 108.318 95.5301C107.292 94.2698 105.708 93.641 105.055 93.9843L105.055 93.9943Z" stroke="#373E3F" stroke-miterlimit="10"/>
<path d="M175.41 99.5824C174.133 99.2677 172.726 99.9663 172.08 101.16C171.433 102.354 171.555 103.942 172.308 105.068C173.061 106.194 174.385 106.847 175.695 106.811C176.995 106.785 178.301 106.049 178.867 104.827C179.462 103.554 179.15 101.939 178.258 100.876C177.366 99.8135 175.985 99.2908 175.41 99.5824Z" stroke="#373E3F" stroke-miterlimit="10"/>
<path d="M234.519 92.1271C233.362 91.82 232.075 92.4961 231.487 93.6486C230.9 94.801 231.011 96.3298 231.703 97.4266C232.395 98.5235 233.598 99.1399 234.789 99.1161C235.969 99.0925 237.166 98.3881 237.682 97.2071C238.218 95.9856 237.937 94.4102 237.126 93.3858C236.315 92.3613 235.054 91.8562 234.529 92.1269L234.519 92.1271Z" stroke="#373E3F" stroke-miterlimit="10"/>
<path d="M211.254 89.6302C210.158 89.3519 208.95 89.9765 208.4 91.0281C207.851 92.0897 207.949 93.4886 208.6 94.4963C209.25 95.4939 210.382 96.0717 211.503 96.0493C212.613 96.0271 213.741 95.3741 214.229 94.2937C214.737 93.1729 214.468 91.7273 213.709 90.7919C212.95 89.8565 211.76 89.39 211.264 89.64L211.254 89.6302Z" stroke="#373E3F" stroke-miterlimit="10"/>
<path d="M138.991 104.773C137.714 104.458 136.307 105.157 135.661 106.351C135.014 107.544 135.136 109.133 135.889 110.259C136.642 111.384 137.966 112.038 139.276 112.002C140.576 111.976 141.882 111.239 142.448 110.017C143.043 108.745 142.731 107.13 141.839 106.067C140.947 105.004 139.566 104.482 138.991 104.773Z" stroke="#373E3F" stroke-miterlimit="10"/>
<path d="M52.731 98.4522C54.3001 100.362 55.5146 102.549 56.3117 104.885C57.8663 101.562 59.916 98.4787 62.3732 95.7579" fill="#373E3E"/>
<path d="M55.1548 103.577C54.6165 103.178 53.7975 103.254 53.286 103.694C52.7744 104.135 52.559 104.87 52.6824 105.538C52.8058 106.206 53.2177 106.788 53.7464 107.207C54.2749 107.617 54.9507 107.884 55.6196 107.81C56.2886 107.737 56.9306 107.314 57.158 106.679" stroke="#373E3E" stroke-width="1.00043" stroke-miterlimit="10"/>
<path d="M111.74 95.0414C112.465 95.2971 113.029 95.9562 113.164 96.714C113.299 97.4718 112.995 98.2884 112.395 98.7707" stroke="#373E3E" stroke-width="1.00043" stroke-miterlimit="10"/>
<path d="M55.0127 148.028C60.6087 135.638 72.2061 126.131 85.4533 123.074" stroke="#373E3E" stroke-width="1.00043" stroke-miterlimit="10"/>
<path d="M116.968 146.839C123.526 135.521 134.792 126.981 147.561 124.004" stroke="#373E3E" stroke-width="1.08046" stroke-miterlimit="10"/>
<path opacity="0.71" d="M166.225 121.64C165.975 122.125 165.623 122.532 165.2 122.891C164.934 124.137 163.934 125.158 162.316 125.28C161.194 125.723 159.815 125.81 158.675 125.873C156.966 125.967 155.761 125.751 154.447 124.617C153.959 124.196 153.654 123.482 153.63 122.792C137.803 125.91 124.81 135.165 118.179 147.346L117.359 148.893C117.999 148.88 120.299 148.304 119.649 148.317L117.629 148.357C117.138 149.328 116.677 150.307 116.267 151.306L213.339 149.366C205.963 133.273 187.664 121.912 166.225 121.64Z" fill="white"/>
<path d="M98.9766 121.313C109.434 120.333 120.191 122.89 129.04 128.547" stroke="#373E3E" stroke-width="1.00043" stroke-miterlimit="10"/>
<path d="M58.5246 103.96C64.4336 115.239 71.3547 117.082 78.2563 116.944" stroke="#FDFDFD" stroke-width="1.00043" stroke-miterlimit="10"/>
<path d="M124.331 89.1762C121.213 82.3642 122.407 76.5367 126.691 72.5987C129.442 70.0721 133.101 68.8983 136.264 66.9439C139.822 64.7414 142.759 61.5007 144.654 57.6805C145.461 59.0152 145.507 60.8054 144.774 62.1909C150.803 57.9478 158.859 56.9963 165.668 59.712C169.128 61.0938 172.285 63.3621 175.922 64.1099C178.746 64.6939 182.013 64.4585 184.056 66.549C186.119 68.6491 185.98 72.2141 187.709 74.6111C189.037 76.4557 191.246 77.3322 193.015 78.7177C195.749 80.8644 197.441 84.3928 197.422 87.9455C197.403 91.4981 195.692 95.0044 192.932 97.1209C191.663 95.6853 189.414 95.3 187.772 96.2434C186.129 97.1868 187.701 98.2361 185.954 98.9414C182.818 100.215 180.707 96.7449 177.466 95.789C174.225 94.8331 170.704 93.9029 168.559 91.214C167.594 90.0026 167.005 88.5334 166.227 87.1881C165.45 85.8428 164.403 84.5529 162.963 84.0713C161.522 83.5898 159.665 84.2573 159.244 85.7667C158.604 87.7607 155.7 90.1402 152.713 91.4207C149.727 92.7011 146.466 93.2766 143.636 94.8642C140.806 96.4517 138.357 99.5726 138.503 102.892C136.298 102.666 134.058 103.261 132.092 104C128.325 103.776 124.7 101.647 122.574 98.4171C121.563 96.8763 120.866 95.0391 120.999 93.1853C121.132 91.3315 122.611 89.7509 124.31 89.1566C124.115 88.42 124.332 88.7559 124.31 89.1566L124.331 89.1762Z" fill="#57534E"/>
<path d="M123.43 88.1536C121.222 88.8381 119.634 90.9812 119.319 93.2589C119.004 95.5366 119.852 97.9012 121.309 99.6932C122.766 101.485 124.792 102.746 126.958 103.463" stroke="#57534E" stroke-width="1.00043" stroke-miterlimit="10"/>
<path d="M121.359 83.1918C120.567 79.1251 121.96 74.6945 124.934 71.8133C128.232 68.6154 133.012 67.4592 136.751 64.7928C138.902 63.2589 140.702 61.2116 141.946 58.8753C142.197 58.41 142.427 57.9151 142.81 57.5472C143.193 57.1793 143.769 56.9577 144.263 57.1379C144.838 57.3566 145.112 58.0616 145.034 58.6735C144.956 59.2854 144.617 59.8326 144.287 60.3495" stroke="#57534E" stroke-width="1.00043" stroke-miterlimit="10"/>
<path d="M143.927 62.3679C143.575 61.7746 143.809 60.9794 144.3 60.4793C144.79 59.9792 145.456 59.7358 146.101 59.4927C147.581 58.9428 149.061 58.4029 150.541 57.853C152.041 57.3027 153.651 56.7302 155.209 57.0793C158.934 55.744 162.61 56.9013 165.783 58.4589C168.956 60.0165 171.998 62.007 175.464 62.7082C177.785 63.1822 180.214 63.0436 182.498 63.7083C184.783 64.3731 187.001 66.19 187.574 68.8202C186.93 70.6642 187.692 72.7603 188.963 74.2558C190.234 75.7514 191.945 76.7778 193.558 77.8863C195.172 78.9948 196.778 80.2635 197.644 82.0173C199.301 85.3663 197.86 89.3576 196.408 92.8088" stroke="#373E3E" stroke-width="1.00043" stroke-miterlimit="10"/>
<path d="M170 120.744C169.566 124.575 166.452 127.959 162.674 128.695C158.896 129.431 154.096 126.545 152.703 123.471L152.434 123.016C158.51 123.645 164.747 122.75 170.404 120.446C170.174 120.43 170.033 120.413 170 120.744Z" fill="#FFF0DC" stroke="#373E3E" stroke-miterlimit="10"/>
<path d="M200.568 76.1652C200.159 79.7056 201.221 84.7876 205.275 85.357C209.008 85.8827 211.65 80.8968 213.68 78.3547C218.005 72.9349 226.144 66.128 232.5 72.7552" stroke="#373E3E" stroke-width="1.00043" stroke-miterlimit="10"/>
<path d="M229.269 71.2788C232.681 84.8092 253.112 75.195 257.64 87.9626" stroke="#373E3E" stroke-width="1.00043" stroke-miterlimit="10"/>
<path d="M200.881 71.7762C203.603 63.7768 209.422 57.0263 216.684 53.419C223.947 49.8117 232.574 49.4191 240.769 51.8969C244.016 49.6207 248.434 49.8826 251.942 51.7136C255.451 53.5447 258.166 56.7025 260.484 60.0283C264.203 65.3673 267.167 71.502 267.84 78.1027C268.512 84.7034 266.632 91.7954 261.968 96.2113" stroke="#231F20" stroke-width="1.00043" stroke-miterlimit="10"/>
<path d="M239.631 50.5488C239.132 48.0873 240.2 45.4643 241.968 43.7879C243.735 42.1116 246.09 41.274 248.446 40.9768C255.163 40.122 262.217 43.6333 265.9 49.6636C267.41 52.1349 268.39 55.0872 268.068 58.0055C267.756 60.9236 265.942 63.7616 263.273 64.4053" stroke="#231F20" stroke-width="1.00043" stroke-miterlimit="10"/>
<path d="M256.228 55.8506C254.237 53.8892 251.814 52.2866 249.197 51.5484C246.581 50.8102 242.532 50.9912 240.917 53.2949C241.131 52.9804 241.345 52.6659 241.568 52.3512L240.025 52.7423C234.361 50.7242 228.115 50.5789 222.376 52.3346C216.638 54.0903 211.437 57.7465 207.673 62.6548C206.503 64.1891 205.457 65.9511 204.794 67.8155C203.31 70.667 202.495 73.9253 202.54 77.1964C202.576 79.4672 203.33 82.1538 205.384 82.8032C206.653 83.1981 208.033 82.6502 209.127 81.8578C212.096 79.6971 213.386 76.6594 215.903 73.9175C218.087 71.5323 221.283 69.2471 224.397 68.8546C227.511 68.4622 230.749 69.238 233.233 71.3397C233.769 72.1595 232.11 73.2533 232.427 74.5978C232.571 74.7651 232.724 74.9321 232.897 75.0787C233.06 75.2356 233.071 75.2654 233.213 75.3626C233.314 75.4306 233.406 75.5188 233.498 75.5871C233.924 75.9187 234.39 76.1596 234.826 76.4511C234.846 76.4707 234.846 76.4707 234.866 76.4803C234.896 76.4897 234.927 76.5091 234.927 76.5191C235.048 76.5667 235.17 76.6443 235.291 76.7019C235.352 76.7307 235.422 76.7694 235.412 76.7696C235.463 76.7786 235.513 76.7976 235.553 76.8168C235.553 76.8168 235.553 76.8168 235.573 76.8164C235.603 76.8158 235.664 76.8446 235.714 76.8636C235.714 76.8636 235.714 76.8636 235.734 76.8632C235.724 76.8634 235.734 76.8632 235.714 76.8636C235.714 76.8636 235.714 76.8636 235.724 76.8634C235.775 76.8824 235.815 76.8916 235.865 76.9106C235.905 76.9098 235.946 76.929 235.926 76.9194C235.896 76.92 236.056 76.9568 236.107 76.9658C236.278 77.0024 235.926 76.9194 236.106 76.9558C236.126 76.9554 236.147 76.965 236.167 76.9746C236.177 76.9744 236.207 76.9738 236.257 76.9728C236.317 76.9716 236.387 76.9902 236.448 77.019L236.468 77.0186C236.528 77.0174 236.578 77.0364 236.659 77.0448C236.679 77.0444 236.709 77.0438 236.729 77.0434C236.759 77.0428 236.789 77.0422 236.829 77.0514C236.929 77.0494 237.039 77.0472 237.1 77.096C237.1 77.096 237.11 77.0958 237.12 77.0956C237.18 77.1144 237.17 77.1146 237.12 77.1056C237.17 77.1046 237.22 77.1136 237.261 77.1329C237.351 77.1611 237.372 77.1707 237.463 77.2289C237.483 77.2385 237.524 77.2677 237.534 77.2775C237.594 77.2963 237.644 77.3053 237.695 77.3343C237.796 77.3823 237.867 77.4309 237.959 77.5091C238.04 77.5776 238.062 77.6772 238.054 77.7674C238.094 77.7766 238.124 77.786 238.155 77.7954C240.894 78.6712 243.762 78.9742 246.556 79.6187C249.351 80.2733 252.164 81.3278 254.237 83.4177C256.31 85.5176 257.467 88.8466 256.453 91.6786C258.944 91.6488 261.362 93.4617 262.162 95.9573C265.282 91.8524 267.089 86.633 267.204 81.3574C267.427 71.4667 263.045 62.5186 256.206 55.771L256.228 55.8506Z" fill="#373E3E"/>
<path d="M231.61 73.2933C231.61 73.2933 231.673 73.4222 231.673 73.4322C231.694 73.4818 231.715 73.5214 231.746 73.5708C231.902 73.8679 232.068 74.1447 232.263 74.421C232.448 74.6674 232.663 74.8733 232.887 75.0889C233.05 75.2458 233.061 75.2756 233.203 75.3728C233.304 75.4408 233.396 75.5291 233.488 75.5973C233.915 75.929 234.38 76.1698 234.816 76.4613C234.836 76.4809 234.836 76.4809 234.856 76.4905C234.887 76.4999 234.917 76.5193 234.917 76.5293C235.038 76.5769 235.16 76.6545 235.281 76.7121C235.342 76.741 235.412 76.7796 235.402 76.7798C235.453 76.7888 235.503 76.8078 235.544 76.827C235.544 76.827 235.544 76.827 235.564 76.8266C235.594 76.826 235.654 76.8548 235.705 76.8738C235.705 76.8738 235.705 76.8738 235.725 76.8734C235.715 76.8736 235.725 76.8734 235.705 76.8738C235.705 76.8738 235.705 76.8738 235.715 76.8736C235.765 76.8926 235.805 76.9018 235.856 76.9208C235.896 76.92 235.936 76.9392 235.916 76.9296C235.886 76.9302 236.047 76.967 236.097 76.976C236.268 77.0126 235.916 76.9296 236.097 76.966C236.117 76.9656 236.137 76.9752 236.157 76.9848C236.167 76.9846 236.197 76.984 236.247 76.983C236.277 76.9824 236.307 77.0018 236.348 77.001L232.852 73.8189C232.419 73.6774 232.014 73.4554 231.628 73.1929C231.629 73.2229 231.619 73.2431 231.61 73.2733L231.61 73.2933Z" fill="#373E3E"/>
<path d="M231.798 73.6698C233.677 76.0737 236.372 77.731 239.275 78.2633L231.798 73.6698Z" fill="#373E3E"/>
<path d="M230.824 67.4854C232.594 71.4325 235.651 74.7035 239.352 76.6207L230.824 67.4854Z" fill="#373E3E"/>
<path d="M229.457 67.1925C231.38 71.2667 234.689 74.6027 238.637 76.4149L229.457 67.1925Z" fill="#373E3E"/>
<path d="M235.173 75.3134C233.073 74.3647 231.297 72.6291 230.761 71.359C231.294 73.4697 232.95 75.2177 235.173 75.3134Z" fill="#373E3E"/>
<path d="M230.994 71.9848L230.637 71.6517C231.423 73.4171 233.481 74.2665 230.994 71.9848Z" fill="#373E3E"/>
<path d="M235.64 74.1433C233.948 74.0871 232.289 73.1997 231.42 72.2665L235.768 74.0207C235.667 73.9727 235.576 73.9245 235.64 74.1433Z" fill="#373E3E"/>
<path d="M234.488 74.5866C233.554 73.9249 232.61 73.2533 232.205 72.5109C232.532 73.3349 233.027 74.0855 233.63 74.7039C233.586 74.4846 233.541 74.2654 234.488 74.5866Z" fill="#373E3E"/>
<path d="M231.771 72.2894C232.206 73.5415 233.108 74.5942 234.24 75.1719C233.626 73.9835 232.715 72.981 231.611 72.3027C232.023 73.4151 232.763 74.3909 233.697 75.0527C233.806 75.0105 233.863 74.8593 231.771 72.2894Z" fill="#373E3E"/>
<path d="M231.46 72.2657C232 73.7358 233.293 74.8607 234.749 75.1418L231.46 72.2657Z" fill="#373E3E"/>
<path d="M234.648 73.5628C233.846 73.5088 233.067 73.084 232.385 72.4773C233.021 72.7548 233.752 72.7802 234.648 73.5628Z" fill="#373E3E"/>
<path d="M232.195 72.4911C233.093 72.8934 234.106 72.9932 235.052 72.7742L232.195 72.4911Z" fill="#373E3E"/>
<path d="M234.967 73.0061C232.851 71.7476 230.956 70.0644 229.2 68.3184C230.841 69.8465 232.483 71.3747 234.967 73.0061Z" fill="#373E3E"/>
<path d="M233.999 73.1555C232.315 71.5181 230.622 69.8909 227.899 68.3343C231.477 70.114 234.394 73.3778 235.873 77.2707" fill="#373E3E"/>
<path d="M230.161 68.8595C231.627 69.6107 232.91 70.7357 233.898 72.1069L230.161 68.8595Z" fill="#373E3E"/>
<path d="M234.189 73.1417C232.763 71.3891 230.993 69.9535 229.183 68.9791C231.244 70.4889 233.102 72.3229 234.189 73.1417Z" fill="#373E3E"/>
<path d="M234.163 72.812C232.88 71.2366 231.451 69.8043 230.526 69.0923C232.176 70.5202 233.591 72.2431 234.163 72.812Z" fill="#373E3E"/>
<path d="M232.921 71.7562C231.829 70.6973 230.737 69.6385 229.594 69.0009C231.093 69.9215 232.438 71.1154 232.921 71.7562Z" fill="#373E3E"/>
<path d="M233.068 72.6437C232.12 71.2618 230.926 70.0749 230.122 69.4206C230.982 70.404 231.843 71.3874 233.068 72.6437Z" fill="#373E3E"/>
<path d="M229.561 68.8815L231.945 71.4955L229.561 68.8815Z" fill="#373E3E"/>
<path d="M232.437 71.0754C231.635 70.5011 230.833 69.9167 230.104 69.0107C230.702 69.8893 231.477 70.6343 232.437 71.0754Z" fill="#373E3E"/>
<path d="M230.164 69.0195L232.88 71.717L230.164 69.0195Z" fill="#373E3E"/>
<path d="M231.316 70.5675C230.221 69.8489 229.136 69.1301 228.276 68.647C229.158 69.2097 230.039 69.7625 231.316 70.5675Z" fill="#373E3E"/>
<path d="M231.205 70.5297C230.213 69.9391 229.22 69.3486 228.096 68.6506C229.273 69.4876 230.509 70.2334 231.205 70.5297Z" fill="#373E3E"/>
<path d="M232.18 71.2207C232.717 72.0605 233.135 72.9827 233.415 73.9477C233.372 73.7885 233.328 73.6192 232.18 71.2207Z" fill="#373E3E"/>
<path d="M233.05 72.2239L233.736 74.4916L233.11 71.7124L234.047 73.5248C233.783 72.8596 233.649 72.1419 233.654 71.4113L234.904 73.3776C235.014 72.845 234.564 72.3637 234.109 72.1227C233.826 71.9682 233.513 71.8644 233.194 71.9008C232.874 71.9372 232.568 72.1535 232.485 72.4753C232.345 73.0084 232.946 73.5368 233.443 73.3667C233.94 73.1967 234.157 72.512 233.946 72.0058C233.736 71.4997 233.2 71.2102 232.68 71.2006C232.557 72.1036 232.837 73.0587 233.43 73.7072C233.686 73.9923 234.041 74.2253 234.4 74.1581C234.729 74.0915 234.982 73.7663 235.025 73.4152C235.068 73.0641 234.941 72.7064 234.735 72.4203C234.468 72.0655 234.023 71.8242 233.626 71.9922C233.229 72.1603 233.133 72.8626 233.05 72.2139L233.05 72.2239Z" fill="#373E3E"/>
<path d="M230.321 69.3365C230.838 70.1567 231.66 70.7507 232.565 70.9628C231.761 70.3084 230.958 69.654 230.154 68.9997C230.707 69.649 231.369 70.1962 232.097 70.6019C232.086 70.0617 231.836 69.5364 230.311 69.3367L230.321 69.3365Z" fill="#373E3E"/>
<path d="M238.32 52.046C237.582 49.1489 238.879 45.951 241.051 43.9963C243.224 42.0417 246.128 41.1732 248.976 40.9562C253.571 40.5941 258.359 41.8493 261.923 44.92C265.486 47.9908 267.647 52.9507 267.002 57.7366C266.749 59.6128 265.929 61.6105 264.263 62.3542C263.053 62.8987 261.677 62.6661 260.391 62.4216C256.344 61.662 252.256 60.8831 248.44 59.2383C244.635 57.5933 241.081 54.9827 238.955 51.2828C238.791 51.5662 238.626 51.8397 238.311 52.0562L238.32 52.046Z" fill="#373E3E"/>
<path d="M239.72 50.9573C239.603 52.1504 239.627 53.3507 239.791 54.5281C240.002 54.5739 240.223 54.6296 239.72 50.9573Z" stroke="#373E3E" stroke-miterlimit="10"/>
<path d="M238.775 54.2683C238.728 54.4093 238.69 54.5401 238.643 54.6811C237.944 53.2442 238.018 51.4216 238.877 50.3338C238.516 51.8219 239.03 53.4927 238.775 54.2683Z" stroke="#373E3E" stroke-miterlimit="10"/>
<path d="M240.13 54.4713C239.369 53.4459 238.962 52.1232 239.599 50.9197C240.089 52.4108 240.976 53.744 240.13 54.4713Z" stroke="#373E3E" stroke-miterlimit="10"/>
<path d="M240.611 52.4805L243.288 55.2487" stroke="#373E3E" stroke-width="1.00043" stroke-miterlimit="10"/>
<path d="M226.766 67.7166C229.15 68.8197 231.428 70.195 233.542 71.8038C234.101 72.2229 234.692 72.7514 234.766 73.4704" stroke="#373E3E" stroke-width="1.00043" stroke-miterlimit="10"/>
<path d="M250.958 79.5808C253.568 81.4799 255.381 84.5856 255.798 87.9094" stroke="#373E3E" stroke-width="1.00043" stroke-miterlimit="10"/>
<path d="M214.849 93.781C219.149 96.1566 224.083 97.1887 228.897 96.7322" stroke="#373E3E" stroke-width="1.00043" stroke-miterlimit="10"/>
</g>
<defs>
<clipPath id="clip0_220_4759">
<rect width="297.49" height="172.17" fill="white" transform="translate(0 5.94746) scale(1.00043) rotate(-1.14505)"/>
</clipPath>
</defs>
</svg>
