<svg width="149" height="146" viewBox="0 0 149 146" fill="none" xmlns="http://www.w3.org/2000/svg">
<g clip-path="url(#clip0_220_4918)">
<path d="M28.6299 115.351L26.0361 114.226L23.7244 107.913L19.3259 105.93L19.1785 101.38L16.0088 99.0182L119.752 28.5558L132.606 45.7688L28.6299 115.351Z" fill="#FFD787"/>
<path d="M108.111 37.0267C108.111 37.0267 117.853 28.3218 120.012 29.7056C122.17 31.0894 132.971 47.5987 132.971 47.5987L127.4 50.8794L121.308 55.5023L108.101 37.0335L108.111 37.0267Z" fill="#E8E7E3"/>
<path d="M142.078 40.557L132.874 46.9202C132.874 46.9202 128.13 40.5516 125.728 37.1151C124.267 35.0212 120.245 28.4927 120.245 28.4927C125.017 25.2691 132.573 18.3243 137.817 24.8245C141.15 28.5636 147.268 36.2969 142.078 40.557Z" fill="#EE7864"/>
<path d="M126.61 49.7476L114.181 32.5877L112.727 33.6512L125.156 50.8111L126.61 49.7476Z" fill="#BFBFBF"/>
<path d="M12.789 119.22C14.5591 119.394 16.3634 119.346 18.1614 119.103C18.8283 118.959 19.5037 118.817 20.1911 118.703C20.427 118.66 20.6528 118.625 20.8886 118.582C22.4815 118.177 24.0533 117.609 25.5852 116.884C25.9905 116.689 26.4192 116.464 26.6627 116.018C27.1331 115.168 26.6629 114.109 26.1761 113.364C25.5104 112.321 24.8128 111.307 24.0817 110.33C23.7484 109.879 23.356 109.416 22.8432 109.397C22.3641 109.383 21.9145 109.763 21.5187 110.135C18.5014 112.888 15.4858 115.632 12.477 118.386C11.9235 118.895 12.2699 119.279 12.7958 119.23L12.789 119.22Z" fill="#CFB476"/>
<path d="M16.117 100.139C16.8495 101.063 17.7413 101.842 18.7347 102.412C18.6591 104.121 18.8449 105.837 19.2662 107.467C21.4115 107.194 23.5881 108.757 24.1548 110.995C24.4036 111.976 24.3713 113.052 24.6958 114.003C25.0204 114.954 25.9043 115.819 26.8267 115.531C22.1584 116.628 17.4918 117.716 12.8151 118.812C12.4766 118.887 12.1196 118.968 11.805 118.828C11.4973 118.699 11.3032 118.388 11.1227 118.099C10.4654 117.057 9.80806 116.015 9.15077 114.974C8.70122 114.262 7.3184 113.442 7.39067 112.567C7.44086 111.943 8.19802 111.377 8.50174 110.846C10.3843 107.576 12.7325 104.342 14.615 101.072C14.8119 100.732 15.0222 100.368 15.355 100.185C15.6878 100.003 16.1707 100.087 16.1001 100.135L16.117 100.139Z" fill="#FFEEC7"/>
<path d="M24.5163 109.71L116.282 50.1436" stroke="#333333" stroke-width="1.00139" stroke-miterlimit="10"/>
<path d="M25.5446 114.096C25.1904 112.708 25.1234 112.783 24.6939 111.469C24.4946 110.867 24.5151 110.08 24.0254 109.985C23.5696 109.897 24.208 109.493 23.7281 109.893C20.0664 112.899 15.4851 115.816 11.8218 118.831C11.1975 119.345 10.385 118.836 10.8256 118.912C11.211 118.775 11.5037 119.21 11.8907 119.065C12.3332 118.904 13.2594 118.959 13.7262 118.9C14.193 118.84 14.2865 118.128 14.7536 118.112C14.9913 118.105 15.2152 118.034 15.4516 118.08C15.4685 118.083 15.4854 118.086 15.5022 118.089C15.7885 118.013 16.0815 117.946 16.3678 117.869C17.6355 117.515 18.9155 117.234 20.1991 116.98C21.2738 116.765 22.3484 116.55 23.4215 116.343C23.5124 116.326 23.5949 116.307 23.6859 116.289C24.9373 116.02 27.4667 116.525 25.5065 113.93C25.5065 113.93 25.5615 114.099 25.5547 114.089L25.5446 114.096Z" fill="#FFBE7D"/>
<path d="M0.721206 121.002C6.41479 113.224 11.4752 105.323 17.1197 97.7984C54.6965 72.5631 90.634 48.1553 128.924 22.9432C131.993 20.922 136.523 21.4962 139.027 24.1781C140.835 26.1101 142.258 28.2669 143.618 30.6581C144.849 32.8131 145.847 35.3104 145.3 37.7385C144.575 41.0031 141.341 42.9222 138.502 44.6621C100.601 67.8996 71.3842 90.3743 29.4696 116.401C19.4667 118.282 10.7247 120.617 0.586063 121.522C0.581158 121.547 0.330027 121.851 0.711127 121.009L0.721206 121.002Z" stroke="#333333" stroke-miterlimit="10"/>
<path d="M16.2773 100.17C17.0673 101.114 18.0334 101.916 19.1012 102.509C19.0476 104.24 19.2554 105.978 19.7326 107.636C22.0315 107.384 24.3652 108.995 25.0046 111.265C25.2839 112.269 25.2601 113.346 25.6236 114.322C25.987 115.299 26.9385 116.177 27.92 115.9C22.9361 116.954 17.9522 118.007 12.9683 119.061C12.6129 119.134 12.2306 119.209 11.8891 119.073C11.5645 118.94 11.345 118.625 11.1492 118.324C10.4345 117.262 9.71971 116.201 9.00659 115.131C8.52492 114.404 7.03398 113.554 7.09781 112.678C7.13955 112.052 7.949 111.487 8.27288 110.943C10.248 107.646 12.7294 104.403 14.7045 101.107C14.9115 100.76 15.1387 100.399 15.4884 100.22C15.8381 100.041 16.3547 100.132 16.2841 100.18L16.2773 100.17Z" stroke="#333333" stroke-miterlimit="10"/>
<path d="M107.495 36.6352C110.911 42.8975 114.907 48.8316 119.407 54.3265" stroke="#333333" stroke-width="1.00139" stroke-miterlimit="10"/>
<path d="M120.419 28.6844C123.835 34.9466 127.83 40.8808 132.331 46.3757" stroke="#333333" stroke-width="1.00139" stroke-miterlimit="10"/>
<path d="M13.1852 119.754C13.3099 119.743 13.433 119.74 13.5577 119.729C10.925 117.761 8.94173 114.423 7.08577 112.06C4.93454 114.68 2.41499 118.303 0.56111 121.288C4.4142 120.65 8.47425 120.21 12.4169 119.879C12.6645 119.821 12.9188 119.773 13.1868 119.746L13.1852 119.754Z" fill="#333333"/>
<path d="M19.8157 102.391L111.082 42.2796" stroke="#333333" stroke-width="1.00139" stroke-miterlimit="10"/>
</g>
<defs>
<clipPath id="clip0_220_4918">
<rect width="127" height="124" fill="white" transform="translate(23.5036) scale(1.00139) rotate(10.9109)"/>
</clipPath>
</defs>
</svg>
