<svg width="106" height="39" viewBox="0 0 106 39" fill="none" xmlns="http://www.w3.org/2000/svg">
<path d="M11.3768 6.2C11.6368 6.06 11.9468 5.99 12.3068 5.99C12.7868 5.99 13.3268 6.13 13.9268 6.41C14.2468 6.57 14.5368 6.65 14.7968 6.65C14.8168 6.65 14.8468 6.64 14.8868 6.62H14.9468H15.0068C15.0468 6.6 15.0768 6.59 15.0968 6.59C15.1768 6.59 15.4668 6.64 15.9668 6.74C16.4268 6.86 16.8768 7.14 17.3168 7.58C17.7768 8 18.1068 8.47 18.3068 8.99C18.4468 9.33 18.5168 9.6 18.5168 9.8C18.5168 9.98 18.4768 10.19 18.3968 10.43C18.2568 10.97 17.9568 11.44 17.4968 11.84C17.0368 12.24 16.5068 12.44 15.9068 12.44C15.4868 12.44 15.0668 12.34 14.6468 12.14C14.3068 12 14.0668 11.93 13.9268 11.93C13.7668 11.93 13.5768 11.98 13.3568 12.08C13.0168 12.22 12.6968 12.29 12.3968 12.29C12.0368 12.29 11.6568 12.19 11.2568 11.99C10.9568 11.85 10.7368 11.78 10.5968 11.78C10.4968 11.78 10.3068 11.84 10.0268 11.96C9.80676 12.06 9.52676 12.11 9.18676 12.11C8.80676 12.11 8.33676 12.04 7.77676 11.9C7.57676 11.86 7.44676 11.86 7.38676 11.9C7.34676 11.94 7.32676 12.07 7.32676 12.29C7.32676 12.63 7.25676 12.97 7.11676 13.31C7.01676 13.51 6.96676 13.69 6.96676 13.85C6.96676 14.01 7.01676 14.19 7.11676 14.39C7.25676 14.73 7.32676 15.18 7.32676 15.74V16.49L7.83676 16.19C8.13676 16.01 8.49676 15.92 8.91676 15.92C9.39676 15.92 9.82676 16.02 10.2068 16.22L10.7768 16.52L11.6168 16.19C12.0768 15.99 12.4168 15.89 12.6368 15.89C12.7768 15.89 12.9668 15.92 13.2068 15.98C13.6068 16.06 13.8368 16.1 13.8968 16.1C14.0168 16.1 14.1268 16.07 14.2268 16.01C14.4268 15.91 14.7068 15.86 15.0668 15.86C15.7068 15.86 16.2068 15.96 16.5668 16.16C17.0068 16.42 17.3768 16.86 17.6768 17.48C17.9968 18.08 18.1568 18.65 18.1568 19.19C18.1568 19.39 18.1268 19.58 18.0668 19.76C17.8268 20.64 17.2768 21.24 16.4168 21.56C16.0568 21.68 15.7868 21.74 15.6068 21.74C15.4468 21.74 15.1968 21.71 14.8568 21.65C14.5568 21.59 14.3068 21.56 14.1068 21.56C13.9468 21.56 13.8068 21.59 13.6868 21.65C13.4868 21.77 13.1768 21.83 12.7568 21.83C12.2968 21.83 11.8968 21.76 11.5568 21.62C11.3968 21.56 11.2168 21.53 11.0168 21.53C10.8168 21.53 10.4968 21.57 10.0568 21.65C9.63676 21.73 9.32676 21.77 9.12676 21.77H8.97676C8.91676 21.77 8.83676 21.77 8.73676 21.77C8.65676 21.75 8.59676 21.74 8.55676 21.74C8.43676 21.74 8.34676 21.76 8.28676 21.8C8.22676 21.82 8.18676 21.86 8.16676 21.92C8.14676 21.96 8.11676 22.05 8.07676 22.19C8.03676 22.27 8.01676 22.54 8.01676 23C8.01676 23.42 8.02676 23.73 8.04676 23.93C8.06676 24.11 8.07676 24.36 8.07676 24.68C8.07676 25.2 8.03676 25.55 7.95676 25.73C7.89676 25.91 7.86676 26.07 7.86676 26.21C7.86676 26.33 7.91676 26.51 8.01676 26.75C8.17676 27.11 8.25676 27.53 8.25676 28.01C8.25676 28.57 8.16676 29.03 7.98676 29.39C7.78676 29.75 7.46676 30.13 7.02676 30.53C6.60676 30.93 6.25676 31.16 5.97676 31.22C5.87676 31.24 5.75676 31.27 5.61676 31.31C5.47676 31.35 5.38676 31.37 5.34676 31.37C5.28676 31.39 5.19676 31.4 5.07676 31.4C4.65676 31.4 4.17676 31.21 3.63676 30.83C3.11676 30.47 2.79676 30.08 2.67676 29.66C2.51676 29.12 2.43676 28.46 2.43676 27.68C2.43676 27.28 2.46676 27 2.52676 26.84C2.56676 26.76 2.58676 26.63 2.58676 26.45C2.58676 26.29 2.52676 26.03 2.40676 25.67C2.28676 25.31 2.22676 25.04 2.22676 24.86C2.22676 24.66 2.26676 24.44 2.34676 24.2C2.42676 23.84 2.46676 23.61 2.46676 23.51C2.46676 23.37 2.43676 23.24 2.37676 23.12C2.27676 22.9 2.22676 22.5 2.22676 21.92C2.22676 21.36 2.27676 21 2.37676 20.84C2.43676 20.76 2.46676 20.65 2.46676 20.51C2.46676 20.43 2.42676 20.19 2.34676 19.79C2.26676 19.39 2.22676 19.12 2.22676 18.98C2.22676 18.86 2.26676 18.6 2.34676 18.2C2.40676 17.92 2.43676 17.72 2.43676 17.6C2.43676 17.44 2.35676 17.17 2.19676 16.79C1.99676 16.33 1.89676 15.83 1.89676 15.29C1.89676 14.87 1.95676 14.5 2.07676 14.18C2.13676 14 2.16676 13.85 2.16676 13.73C2.16676 13.55 2.12676 13.38 2.04676 13.22C1.92676 12.92 1.86676 12.54 1.86676 12.08C1.86676 11.64 1.92676 11.3 2.04676 11.06C2.22676 10.74 2.41676 10.48 2.61676 10.28C2.85676 10.02 2.98676 9.6 3.00676 9.02C3.02676 8.42 3.19676 7.97 3.51676 7.67C3.83676 7.37 4.25676 7.11 4.77676 6.89C5.29676 6.67 5.76676 6.56 6.18676 6.56H6.24676H6.66676H7.50676C7.58676 6.56 7.72676 6.56 7.92676 6.56C8.14676 6.54 8.39676 6.53 8.67676 6.53C8.97676 6.51 9.22676 6.5 9.42676 6.5C10.3868 6.46 11.0368 6.36 11.3768 6.2ZM28.3364 10.79C28.6364 10.67 28.9664 10.61 29.3264 10.61C30.4264 10.61 31.2064 10.98 31.6664 11.72C31.8464 12.04 32.0964 12.24 32.4164 12.32C32.9564 12.42 33.4464 12.74 33.8864 13.28C34.3264 13.82 34.5764 14.41 34.6364 15.05C34.6564 15.37 34.8464 15.71 35.2064 16.07C35.4264 16.29 35.5564 16.48 35.5964 16.64C35.6564 16.78 35.6864 17.03 35.6864 17.39C35.6864 17.77 35.6564 18.04 35.5964 18.2C35.5364 18.36 35.3764 18.56 35.1164 18.8C34.7364 19.18 34.3864 19.43 34.0664 19.55C33.7464 19.65 33.2364 19.7 32.5364 19.7C31.7364 19.7 31.1764 19.8 30.8564 20C30.4564 20.22 29.9564 20.33 29.3564 20.33C29.0564 20.33 28.7564 20.3 28.4564 20.24C28.4164 20.22 28.3464 20.21 28.2464 20.21C28.0064 20.21 27.7764 20.29 27.5564 20.45C27.3364 20.59 27.2164 20.74 27.1964 20.9C27.1964 21.12 27.3464 21.39 27.6464 21.71C27.9664 22.01 28.3164 22.24 28.6964 22.4L29.5064 22.76L30.2564 22.43C30.5964 22.29 30.9364 22.22 31.2764 22.22C32.1564 22.22 32.9264 22.71 33.5864 23.69C33.9064 24.17 34.0664 24.66 34.0664 25.16C34.0664 26.04 33.6964 26.76 32.9564 27.32C32.5164 27.64 31.8564 27.8 30.9764 27.8C30.7964 27.8 30.5864 27.78 30.3464 27.74C30.1664 27.68 29.9964 27.65 29.8364 27.65C29.6964 27.65 29.4964 27.7 29.2364 27.8C28.8164 27.96 28.4264 28.04 28.0664 28.04C27.0464 28.04 26.2764 27.64 25.7564 26.84C25.4964 26.42 25.2164 26.18 24.9164 26.12C24.5764 26.04 24.1664 25.86 23.6864 25.58C22.7264 25.06 22.2464 24.29 22.2464 23.27C22.2464 23.25 22.2464 23.2 22.2464 23.12C22.2664 23.04 22.2764 22.99 22.2764 22.97C22.2764 22.93 22.2764 22.87 22.2764 22.79C22.2964 22.71 22.3064 22.66 22.3064 22.64C22.3064 22.4 22.1764 22.05 21.9164 21.59C21.6164 21.11 21.4664 20.61 21.4664 20.09C21.4664 19.75 21.5464 19.37 21.7064 18.95C21.8064 18.75 21.8564 18.56 21.8564 18.38C21.8564 18.24 21.8064 18.04 21.7064 17.78C21.6064 17.56 21.5564 17.28 21.5564 16.94C21.5564 15.92 22.0664 15.14 23.0864 14.6C23.5064 14.38 23.7664 14.1 23.8664 13.76C23.9264 13.48 24.1064 13.16 24.4064 12.8C24.7264 12.42 25.0364 12.16 25.3364 12.02C25.6164 11.88 25.9564 11.81 26.3564 11.81C26.7564 11.81 27.1064 11.67 27.4064 11.39C27.7264 11.13 28.0364 10.93 28.3364 10.79ZM45.475 10.79C45.775 10.67 46.105 10.61 46.465 10.61C47.565 10.61 48.345 10.98 48.805 11.72C48.985 12.04 49.235 12.24 49.555 12.32C50.095 12.42 50.585 12.74 51.025 13.28C51.465 13.82 51.715 14.41 51.775 15.05C51.795 15.37 51.985 15.71 52.345 16.07C52.565 16.29 52.695 16.48 52.735 16.64C52.795 16.78 52.825 17.03 52.825 17.39C52.825 17.77 52.795 18.04 52.735 18.2C52.675 18.36 52.515 18.56 52.255 18.8C51.875 19.18 51.525 19.43 51.205 19.55C50.885 19.65 50.375 19.7 49.675 19.7C48.875 19.7 48.315 19.8 47.995 20C47.595 20.22 47.095 20.33 46.495 20.33C46.195 20.33 45.895 20.3 45.595 20.24C45.555 20.22 45.485 20.21 45.385 20.21C45.145 20.21 44.915 20.29 44.695 20.45C44.475 20.59 44.355 20.74 44.335 20.9C44.335 21.12 44.485 21.39 44.785 21.71C45.105 22.01 45.455 22.24 45.835 22.4L46.645 22.76L47.395 22.43C47.735 22.29 48.075 22.22 48.415 22.22C49.295 22.22 50.065 22.71 50.725 23.69C51.045 24.17 51.205 24.66 51.205 25.16C51.205 26.04 50.835 26.76 50.095 27.32C49.655 27.64 48.995 27.8 48.115 27.8C47.935 27.8 47.725 27.78 47.485 27.74C47.305 27.68 47.135 27.65 46.975 27.65C46.835 27.65 46.635 27.7 46.375 27.8C45.955 27.96 45.565 28.04 45.205 28.04C44.185 28.04 43.415 27.64 42.895 26.84C42.635 26.42 42.355 26.18 42.055 26.12C41.715 26.04 41.305 25.86 40.825 25.58C39.865 25.06 39.385 24.29 39.385 23.27C39.385 23.25 39.385 23.2 39.385 23.12C39.405 23.04 39.415 22.99 39.415 22.97C39.415 22.93 39.415 22.87 39.415 22.79C39.435 22.71 39.445 22.66 39.445 22.64C39.445 22.4 39.315 22.05 39.055 21.59C38.755 21.11 38.605 20.61 38.605 20.09C38.605 19.75 38.685 19.37 38.845 18.95C38.945 18.75 38.995 18.56 38.995 18.38C38.995 18.24 38.945 18.04 38.845 17.78C38.745 17.56 38.695 17.28 38.695 16.94C38.695 15.92 39.205 15.14 40.225 14.6C40.645 14.38 40.905 14.1 41.005 13.76C41.065 13.48 41.245 13.16 41.545 12.8C41.865 12.42 42.175 12.16 42.475 12.02C42.755 11.88 43.095 11.81 43.495 11.81C43.895 11.81 44.245 11.67 44.545 11.39C44.865 11.13 45.175 10.93 45.475 10.79ZM58.1137 9.32C58.6137 9.02 59.1237 8.87 59.6437 8.87C60.5837 8.87 61.3637 9.32 61.9837 10.22C62.3037 10.68 62.4637 11.21 62.4637 11.81C62.4637 12.39 62.3037 12.89 61.9837 13.31C61.7237 13.65 61.5937 13.87 61.5937 13.97C61.5937 14.09 61.6337 14.24 61.7137 14.42C61.8137 14.68 61.8637 14.96 61.8637 15.26C61.8637 15.44 61.8537 15.58 61.8337 15.68C61.7737 16.08 61.7237 16.77 61.6837 17.75C61.6437 18.77 61.5737 19.37 61.4737 19.55C61.3337 19.81 61.3437 20.1 61.5037 20.42C61.6637 20.74 61.7437 21.1 61.7437 21.5C61.7437 21.82 61.6837 22.13 61.5637 22.43C61.4837 22.71 61.4437 23.17 61.4437 23.81V24.23V24.8C61.4437 25.38 61.3237 25.86 61.0837 26.24C60.5637 27.12 59.8037 27.56 58.8037 27.56C57.7837 27.56 57.0237 27.1 56.5237 26.18C56.3037 25.74 56.1937 25.31 56.1937 24.89C56.1937 24.59 56.2037 24.33 56.2237 24.11C56.2237 24.03 56.2237 23.92 56.2237 23.78C56.2437 23.62 56.2537 23.51 56.2537 23.45C56.2537 22.93 56.1837 22.53 56.0437 22.25C55.8837 21.89 55.8037 21.51 55.8037 21.11C55.8037 20.61 55.9137 20.17 56.1337 19.79C56.3137 19.49 56.4037 19.26 56.4037 19.1C56.4037 18.98 56.3737 18.81 56.3137 18.59C56.2537 18.33 56.2237 18.09 56.2237 17.87C56.2237 17.79 56.2237 17.69 56.2237 17.57C56.2437 17.45 56.2537 17.36 56.2537 17.3C56.2537 17.02 56.1737 16.72 56.0137 16.4C55.8337 16.04 55.7437 15.63 55.7437 15.17C55.7437 14.59 55.8837 14.1 56.1637 13.7C56.3437 13.46 56.4337 13.26 56.4337 13.1C56.4337 13.08 56.3937 12.91 56.3137 12.59C56.2537 12.35 56.2237 12.12 56.2237 11.9C56.2237 10.9 56.8537 10.04 58.1137 9.32ZM67.7817 9.32C68.2817 9.02 68.7917 8.87 69.3117 8.87C70.2517 8.87 71.0317 9.32 71.6517 10.22C71.9717 10.68 72.1317 11.21 72.1317 11.81C72.1317 12.39 71.9717 12.89 71.6517 13.31C71.3917 13.65 71.2617 13.87 71.2617 13.97C71.2617 14.09 71.3017 14.24 71.3817 14.42C71.4817 14.68 71.5317 14.96 71.5317 15.26C71.5317 15.44 71.5217 15.58 71.5017 15.68C71.4417 16.08 71.3917 16.77 71.3517 17.75C71.3117 18.77 71.2417 19.37 71.1417 19.55C71.0017 19.81 71.0117 20.1 71.1717 20.42C71.3317 20.74 71.4117 21.1 71.4117 21.5C71.4117 21.82 71.3517 22.13 71.2317 22.43C71.1517 22.71 71.1117 23.17 71.1117 23.81V24.23V24.8C71.1117 25.38 70.9917 25.86 70.7517 26.24C70.2317 27.12 69.4717 27.56 68.4717 27.56C67.4517 27.56 66.6917 27.1 66.1917 26.18C65.9717 25.74 65.8617 25.31 65.8617 24.89C65.8617 24.59 65.8717 24.33 65.8917 24.11C65.8917 24.03 65.8917 23.92 65.8917 23.78C65.9117 23.62 65.9217 23.51 65.9217 23.45C65.9217 22.93 65.8517 22.53 65.7117 22.25C65.5517 21.89 65.4717 21.51 65.4717 21.11C65.4717 20.61 65.5817 20.17 65.8017 19.79C65.9817 19.49 66.0717 19.26 66.0717 19.1C66.0717 18.98 66.0417 18.81 65.9817 18.59C65.9217 18.33 65.8917 18.09 65.8917 17.87C65.8917 17.79 65.8917 17.69 65.8917 17.57C65.9117 17.45 65.9217 17.36 65.9217 17.3C65.9217 17.02 65.8417 16.72 65.6817 16.4C65.5017 16.04 65.4117 15.63 65.4117 15.17C65.4117 14.59 65.5517 14.1 65.8317 13.7C66.0117 13.46 66.1017 13.26 66.1017 13.1C66.1017 13.08 66.0617 12.91 65.9817 12.59C65.9217 12.35 65.8917 12.12 65.8917 11.9C65.8917 10.9 66.5217 10.04 67.7817 9.32ZM80.9596 13.88C80.9996 13.84 81.1696 13.82 81.4696 13.82C81.7096 13.82 81.8996 13.83 82.0396 13.85C82.6996 13.91 83.2896 14.1 83.8096 14.42C84.3096 14.74 84.6696 14.9 84.8896 14.9C85.0896 14.9 85.3796 15 85.7596 15.2C86.1596 15.4 86.4396 15.59 86.5996 15.77C87.0796 16.31 87.3196 17.25 87.3196 18.59V19.46C87.3196 19.66 87.3996 20 87.5596 20.48C87.6796 20.84 87.7396 21.1 87.7396 21.26C87.7396 21.4 87.7096 21.59 87.6496 21.83C87.5496 22.21 87.3196 22.61 86.9596 23.03C86.6196 23.45 86.2596 23.75 85.8796 23.93C85.5196 24.11 85.3396 24.28 85.3396 24.44C85.3396 24.66 85.2196 24.94 84.9796 25.28C84.7396 25.6 84.4696 25.85 84.1696 26.03C83.7896 26.27 83.3496 26.39 82.8496 26.39C82.3696 26.39 81.9296 26.28 81.5296 26.06C81.1896 25.88 80.9496 25.79 80.8096 25.79C80.6896 25.79 80.5096 25.82 80.2696 25.88C80.0296 25.94 79.7896 25.97 79.5496 25.97C78.8096 25.97 78.1396 25.74 77.5396 25.28C76.9596 24.82 76.6696 24.27 76.6696 23.63C76.6696 23.35 76.4796 23.05 76.0996 22.73C75.4596 22.23 75.1396 21.59 75.1396 20.81C75.1396 20.33 75.2596 19.79 75.4996 19.19C75.7196 18.67 75.8296 18.18 75.8296 17.72C75.8296 17.68 75.8196 17.6 75.7996 17.48C75.7996 17.36 75.7996 17.26 75.7996 17.18C75.7796 16.98 75.7696 16.75 75.7696 16.49C75.7696 16.13 75.8696 15.81 76.0696 15.53C76.6096 14.73 77.7196 14.26 79.3996 14.12C80.3596 14.04 80.8796 13.96 80.9596 13.88ZM95.917 11.87C96.217 11.77 96.507 11.72 96.787 11.72C97.307 11.72 97.767 11.84 98.167 12.08C98.347 12.2 98.507 12.26 98.647 12.26C98.767 12.26 99.027 12.2 99.427 12.08C99.967 11.92 100.377 11.84 100.657 11.84C101.237 11.84 101.917 12.15 102.697 12.77C103.497 13.41 103.897 14.24 103.897 15.26C103.897 15.62 103.817 15.99 103.657 16.37C103.557 16.63 103.507 16.84 103.507 17C103.507 17.08 103.527 17.18 103.567 17.3C103.667 17.6 103.717 17.87 103.717 18.11C103.717 18.39 103.647 18.74 103.507 19.16C103.407 19.36 103.357 19.54 103.357 19.7C103.357 19.88 103.407 20.07 103.507 20.27C103.627 20.57 103.687 20.89 103.687 21.23C103.687 21.49 103.677 21.69 103.657 21.83C103.637 21.97 103.627 22.16 103.627 22.4C103.627 22.72 103.677 23 103.777 23.24C104.017 23.7 104.137 24.26 104.137 24.92C104.137 25.8 103.967 26.38 103.627 26.66C103.487 26.78 103.417 27.13 103.417 27.71C103.417 28.27 103.237 28.88 102.877 29.54C102.517 30.18 102.337 30.62 102.337 30.86C102.337 31.12 102.197 31.51 101.917 32.03C101.637 32.57 101.387 32.91 101.167 33.05C100.727 33.33 100.167 33.47 99.487 33.47C99.227 33.47 99.037 33.46 98.917 33.44C98.677 33.4 98.527 33.38 98.467 33.38C98.227 33.38 98.027 33.44 97.867 33.56C97.487 33.78 97.047 33.89 96.547 33.89C96.107 33.89 95.687 33.8 95.287 33.62C94.707 33.38 94.207 33.24 93.787 33.2C93.367 33.16 92.887 32.99 92.347 32.69C91.807 32.41 91.417 32.09 91.177 31.73C90.897 31.33 90.757 30.82 90.757 30.2C90.757 29.78 90.827 29.37 90.967 28.97C91.187 28.37 91.527 27.9 91.987 27.56C92.447 27.22 92.947 27.05 93.487 27.05C94.187 27.05 94.777 27.33 95.257 27.89C95.417 28.09 95.577 28.22 95.737 28.28C95.917 28.32 96.237 28.35 96.697 28.37L97.717 28.4L97.747 27.65C97.767 27.27 97.877 26.86 98.077 26.42C98.297 25.96 98.487 25.73 98.647 25.73C98.727 25.73 98.767 25.4 98.767 24.74V23.75L97.957 23.63C97.637 23.57 97.127 23.54 96.427 23.54H95.887H95.467C94.847 23.54 94.357 23.45 93.997 23.27C93.097 22.81 92.647 22.05 92.647 20.99C92.647 20.77 92.677 20.54 92.737 20.3C92.797 20.06 92.827 19.87 92.827 19.73C92.827 19.59 92.777 19.37 92.677 19.07C92.537 18.67 92.427 18.14 92.347 17.48C92.327 17.36 92.317 17.19 92.317 16.97C92.317 16.09 92.657 15.41 93.337 14.93C93.717 14.67 93.947 14.33 94.027 13.91C94.087 13.53 94.307 13.14 94.687 12.74C95.087 12.32 95.497 12.03 95.917 11.87Z" fill="#5793F4"/>
</svg>
