<svg width="137" height="38" viewBox="0 0 137 38" fill="none" xmlns="http://www.w3.org/2000/svg">
<path d="M12.7395 0.281363C13.0878 0.0938232 13.503 5.31768e-05 13.9853 5.31768e-05C14.6283 5.31768e-05 15.3516 0.187594 16.1554 0.562676C16.5841 0.777007 16.9725 0.884173 17.3208 0.884173C17.3476 0.884173 17.3878 0.870777 17.4414 0.843986H17.5218H17.6021C17.6557 0.817195 17.6959 0.803799 17.7227 0.803799C17.8299 0.803799 18.2183 0.870778 18.8881 1.00474C19.5043 1.16548 20.1071 1.54057 20.6966 2.12998C21.3128 2.69261 21.7548 3.32221 22.0227 4.01879C22.2103 4.47424 22.3041 4.83593 22.3041 5.10385C22.3041 5.34497 22.2505 5.62628 22.1433 5.94778C21.9558 6.67115 21.5539 7.30075 20.9377 7.83659C20.3215 8.37242 19.6115 8.64033 18.8078 8.64033C18.2451 8.64033 17.6825 8.50637 17.1199 8.23846C16.6644 8.05092 16.3429 7.95715 16.1554 7.95715C15.9411 7.95715 15.6865 8.02413 15.3918 8.15808C14.9364 8.34563 14.5077 8.4394 14.1058 8.4394C13.6236 8.4394 13.1146 8.30544 12.5787 8.03752C12.1768 7.84998 11.8821 7.75621 11.6946 7.75621C11.5606 7.75621 11.3061 7.83659 10.931 7.99734C10.6363 8.13129 10.2612 8.19827 9.80579 8.19827C9.29675 8.19827 8.66715 8.1045 7.91699 7.91696C7.64907 7.86338 7.47493 7.86338 7.39455 7.91696C7.34097 7.97054 7.31418 8.14469 7.31418 8.4394C7.31418 8.89485 7.22041 9.35031 7.03286 9.80577C6.89891 10.0737 6.83193 10.3148 6.83193 10.5291C6.83193 10.7435 6.89891 10.9846 7.03286 11.2525C7.22041 11.708 7.31418 12.3108 7.31418 13.0609V14.0656L7.99736 13.6638C8.39923 13.4226 8.88148 13.3021 9.44411 13.3021C10.0871 13.3021 10.6631 13.436 11.1722 13.7039L11.9357 14.1058L13.061 13.6638C13.6772 13.3958 14.1326 13.2619 14.4273 13.2619C14.6149 13.2619 14.8694 13.3021 15.1909 13.3824C15.7267 13.4896 16.0348 13.5432 16.1152 13.5432C16.276 13.5432 16.4233 13.503 16.5573 13.4226C16.8252 13.2887 17.2003 13.2217 17.6825 13.2217C18.5398 13.2217 19.2096 13.3556 19.6919 13.6236C20.2813 13.9719 20.7769 14.5613 21.1788 15.3918C21.6075 16.1956 21.8218 16.9591 21.8218 17.6825C21.8218 17.9504 21.7816 18.2049 21.7012 18.446C21.3797 19.6249 20.643 20.4286 19.4909 20.8573C19.0087 21.018 18.647 21.0984 18.4059 21.0984C18.1916 21.0984 17.8567 21.0582 17.4012 20.9778C16.9993 20.8975 16.6644 20.8573 16.3965 20.8573C16.1822 20.8573 15.9946 20.8975 15.8339 20.9778C15.566 21.1386 15.1507 21.219 14.5881 21.219C13.9719 21.219 13.436 21.1252 12.9806 20.9377C12.7663 20.8573 12.5251 20.8171 12.2572 20.8171C11.9893 20.8171 11.5606 20.8707 10.9712 20.9778C10.4086 21.085 9.99333 21.1386 9.72542 21.1386H9.52448C9.44411 21.1386 9.33694 21.1386 9.20298 21.1386C9.09581 21.1118 9.01544 21.0984 8.96186 21.0984C8.80111 21.0984 8.68055 21.1252 8.60017 21.1788C8.5198 21.2056 8.46621 21.2592 8.43942 21.3395C8.41263 21.3931 8.37244 21.5137 8.31886 21.7012C8.26528 21.8084 8.23849 22.1701 8.23849 22.7863C8.23849 23.3489 8.25188 23.7642 8.27867 24.0321C8.30546 24.2732 8.31886 24.6081 8.31886 25.0368C8.31886 25.7334 8.26528 26.2022 8.15811 26.4433C8.07774 26.6845 8.03755 26.8988 8.03755 27.0863C8.03755 27.2471 8.10453 27.4882 8.23849 27.8097C8.45282 28.2919 8.55998 28.8546 8.55998 29.4976C8.55998 30.2477 8.43942 30.8639 8.1983 31.3462C7.93038 31.8284 7.50172 32.3375 6.9123 32.8733C6.34968 33.4091 5.88083 33.7172 5.50575 33.7976C5.37179 33.8244 5.21104 33.8646 5.0235 33.9182C4.83596 33.9718 4.71539 33.9985 4.66181 33.9985C4.58144 34.0253 4.46087 34.0387 4.30012 34.0387C3.7375 34.0387 3.0945 33.7842 2.37113 33.2752C1.67455 32.7929 1.24589 32.2705 1.08514 31.7079C0.870804 30.9845 0.763638 30.1004 0.763638 29.0555C0.763638 28.5197 0.803825 28.1446 0.8842 27.9303C0.937783 27.8231 0.964575 27.6489 0.964575 27.4078C0.964575 27.1935 0.8842 26.8452 0.723451 26.363C0.562701 25.8807 0.482327 25.519 0.482327 25.2779C0.482327 25.01 0.53591 24.7153 0.643076 24.3938C0.750242 23.9115 0.803826 23.6034 0.803826 23.4695C0.803826 23.2819 0.763638 23.1078 0.683264 22.947C0.549306 22.6523 0.482327 22.1165 0.482327 21.3395C0.482327 20.5894 0.549306 20.1071 0.683264 19.8928C0.763638 19.7856 0.803826 19.6383 0.803826 19.4507C0.803826 19.3436 0.750242 19.0221 0.643076 18.4862C0.53591 17.9504 0.482327 17.5887 0.482327 17.4012C0.482327 17.2404 0.53591 16.8921 0.643076 16.3563C0.723451 15.9812 0.763638 15.7133 0.763638 15.5526C0.763638 15.3382 0.656472 14.9765 0.442139 14.4675C0.174224 13.8513 0.0402659 13.1815 0.0402659 12.4581C0.0402659 11.8955 0.120641 11.3999 0.28139 10.9712C0.361765 10.7301 0.401952 10.5291 0.401952 10.3684C0.401952 10.1273 0.348369 9.89954 0.241203 9.6852C0.0804532 9.28333 7.85077e-05 8.77429 7.85077e-05 8.15808C7.85077e-05 7.56867 0.0804532 7.11321 0.241203 6.79171C0.482327 6.36305 0.736847 6.01476 1.00476 5.74684C1.32626 5.39855 1.50041 4.83593 1.5272 4.05898C1.55399 3.25523 1.78172 2.65242 2.21038 2.25054C2.63905 1.84867 3.20167 1.50038 3.89825 1.20567C4.59483 0.910966 5.22443 0.763613 5.78706 0.763613H5.86743H6.43005H7.5553C7.66247 0.763613 7.85001 0.763613 8.11792 0.763613C8.41263 0.736821 8.74752 0.723426 9.12261 0.723426C9.52448 0.696633 9.85938 0.683236 10.1273 0.683236C11.4133 0.629654 12.284 0.495696 12.7395 0.281363ZM35.4582 6.43003C35.8601 6.26928 36.3021 6.1889 36.7844 6.1889C38.2579 6.1889 39.3028 6.68455 39.919 7.67584C40.1601 8.1045 40.495 8.37242 40.9237 8.47958C41.647 8.61354 42.3034 9.04221 42.8929 9.76558C43.4823 10.489 43.8172 11.2793 43.8975 12.1366C43.9243 12.5653 44.1788 13.0208 44.6611 13.503C44.9558 13.7977 45.1299 14.0522 45.1835 14.2666C45.2639 14.4541 45.3041 14.789 45.3041 15.2712C45.3041 15.7803 45.2639 16.142 45.1835 16.3563C45.1032 16.5706 44.8888 16.8386 44.5405 17.1601C44.0315 17.6691 43.5626 18.004 43.134 18.1647C42.7053 18.2987 42.0221 18.3657 41.0844 18.3657C40.0128 18.3657 39.2626 18.4996 38.8339 18.7675C38.2981 19.0623 37.6283 19.2096 36.8246 19.2096C36.4227 19.2096 36.0208 19.1694 35.6189 19.089C35.5654 19.0623 35.4716 19.0489 35.3376 19.0489C35.0161 19.0489 34.708 19.156 34.4133 19.3704C34.1186 19.5579 33.9579 19.7588 33.9311 19.9732C33.9311 20.2679 34.132 20.6296 34.5339 21.0582C34.9625 21.4601 35.4314 21.7682 35.9404 21.9825L37.0255 22.4648L38.0302 22.0227C38.4856 21.8352 38.9411 21.7414 39.3966 21.7414C40.5754 21.7414 41.6069 22.3978 42.491 23.7106C42.9196 24.3536 43.134 25.01 43.134 25.6798C43.134 26.8586 42.6383 27.8231 41.647 28.5733C41.0576 29.0019 40.1735 29.2163 38.9947 29.2163C38.7536 29.2163 38.4722 29.1895 38.1507 29.1359C37.9096 29.0555 37.6819 29.0153 37.4676 29.0153C37.28 29.0153 37.0121 29.0823 36.6638 29.2163C36.1012 29.4306 35.5788 29.5378 35.0965 29.5378C33.7301 29.5378 32.6987 29.0019 32.0021 27.9303C31.6538 27.3676 31.2787 27.0461 30.8768 26.9658C30.4214 26.8586 29.8722 26.6175 29.2292 26.2424C27.9432 25.5458 27.3002 24.5143 27.3002 23.148C27.3002 23.1212 27.3002 23.0542 27.3002 22.947C27.327 22.8399 27.3403 22.7729 27.3403 22.7461C27.3403 22.6925 27.3403 22.6121 27.3403 22.505C27.3671 22.3978 27.3805 22.3308 27.3805 22.304C27.3805 21.9825 27.2064 21.5137 26.8581 20.8975C26.4562 20.2545 26.2553 19.5847 26.2553 18.8881C26.2553 18.4326 26.3625 17.9236 26.5768 17.361C26.7107 17.0931 26.7777 16.8386 26.7777 16.5974C26.7777 16.4099 26.7107 16.142 26.5768 15.7937C26.4428 15.499 26.3759 15.1239 26.3759 14.6684C26.3759 13.3021 27.059 12.2572 28.4254 11.5338C28.988 11.2391 29.3363 10.864 29.4703 10.4086C29.5507 10.0335 29.7918 9.60483 30.1936 9.12258C30.6223 8.61354 31.0376 8.26525 31.4395 8.07771C31.8145 7.89017 32.27 7.7964 32.8058 7.7964C33.3417 7.7964 33.8105 7.60886 34.2124 7.23378C34.641 6.88549 35.0563 6.61757 35.4582 6.43003ZM58.4168 6.43003C58.8187 6.26928 59.2607 6.1889 59.743 6.1889C61.2165 6.1889 62.2614 6.68455 62.8776 7.67584C63.1187 8.1045 63.4536 8.37242 63.8823 8.47958C64.6056 8.61354 65.262 9.04221 65.8514 9.76558C66.4409 10.489 66.7758 11.2793 66.8561 12.1366C66.8829 12.5653 67.1374 13.0208 67.6197 13.503C67.9144 13.7977 68.0885 14.0522 68.1421 14.2666C68.2225 14.4541 68.2627 14.789 68.2627 15.2712C68.2627 15.7803 68.2225 16.142 68.1421 16.3563C68.0617 16.5706 67.8474 16.8386 67.4991 17.1601C66.9901 17.6691 66.5212 18.004 66.0926 18.1647C65.6639 18.2987 64.9807 18.3657 64.043 18.3657C62.9713 18.3657 62.2212 18.4996 61.7925 18.7675C61.2567 19.0623 60.5869 19.2096 59.7832 19.2096C59.3813 19.2096 58.9794 19.1694 58.5775 19.089C58.5239 19.0623 58.4302 19.0489 58.2962 19.0489C57.9747 19.0489 57.6666 19.156 57.3719 19.3704C57.0772 19.5579 56.9165 19.7588 56.8897 19.9732C56.8897 20.2679 57.0906 20.6296 57.4925 21.0582C57.9211 21.4601 58.39 21.7682 58.899 21.9825L59.9841 22.4648L60.9888 22.0227C61.4442 21.8352 61.8997 21.7414 62.3551 21.7414C63.534 21.7414 64.5654 22.3978 65.4496 23.7106C65.8782 24.3536 66.0926 25.01 66.0926 25.6798C66.0926 26.8586 65.5969 27.8231 64.6056 28.5733C64.0162 29.0019 63.1321 29.2163 61.9533 29.2163C61.7121 29.2163 61.4308 29.1895 61.1093 29.1359C60.8682 29.0555 60.6405 29.0153 60.4262 29.0153C60.2386 29.0153 59.9707 29.0823 59.6224 29.2163C59.0598 29.4306 58.5373 29.5378 58.0551 29.5378C56.6887 29.5378 55.6573 29.0019 54.9607 27.9303C54.6124 27.3676 54.2373 27.0461 53.8354 26.9658C53.38 26.8586 52.8307 26.6175 52.1877 26.2424C50.9017 25.5458 50.2588 24.5143 50.2588 23.148C50.2588 23.1212 50.2588 23.0542 50.2588 22.947C50.2855 22.8399 50.2989 22.7729 50.2989 22.7461C50.2989 22.6925 50.2989 22.6121 50.2989 22.505C50.3257 22.3978 50.3391 22.3308 50.3391 22.304C50.3391 21.9825 50.165 21.5137 49.8167 20.8975C49.4148 20.2545 49.2139 19.5847 49.2139 18.8881C49.2139 18.4326 49.321 17.9236 49.5354 17.361C49.6693 17.0931 49.7363 16.8386 49.7363 16.5974C49.7363 16.4099 49.6693 16.142 49.5354 15.7937C49.4014 15.499 49.3344 15.1239 49.3344 14.6684C49.3344 13.3021 50.0176 12.2572 51.384 11.5338C51.9466 11.2391 52.2949 10.864 52.4289 10.4086C52.5092 10.0335 52.7504 9.60483 53.1522 9.12258C53.5809 8.61354 53.9962 8.26525 54.398 8.07771C54.7731 7.89017 55.2286 7.7964 55.7644 7.7964C56.3002 7.7964 56.7691 7.60886 57.171 7.23378C57.5996 6.88549 58.0149 6.61757 58.4168 6.43003ZM75.3473 4.46085C76.0171 4.05898 76.7002 3.85804 77.3968 3.85804C78.656 3.85804 79.7009 4.46085 80.5314 5.66647C80.9601 6.28267 81.1744 6.99265 81.1744 7.7964C81.1744 8.57335 80.9601 9.24314 80.5314 9.80577C80.1832 10.2612 80.009 10.5559 80.009 10.6899C80.009 10.8506 80.0626 11.0516 80.1698 11.2927C80.3037 11.641 80.3707 12.0161 80.3707 12.4179C80.3707 12.6591 80.3573 12.8466 80.3305 12.9806C80.2501 13.5164 80.1832 14.4407 80.1296 15.7535C80.076 17.1199 79.9822 17.9236 79.8483 18.1647C79.6607 18.513 79.6741 18.9015 79.8884 19.3302C80.1028 19.7588 80.2099 20.2411 80.2099 20.7769C80.2099 21.2056 80.1296 21.6208 79.9688 22.0227C79.8617 22.3978 79.8081 23.014 79.8081 23.8713V24.434V25.1975C79.8081 25.9745 79.6473 26.6175 79.3258 27.1265C78.6292 28.3053 77.6112 28.8948 76.2716 28.8948C74.9052 28.8948 73.8871 28.2786 73.2173 27.0461C72.9226 26.4567 72.7753 25.8807 72.7753 25.3181C72.7753 24.9162 72.7887 24.5679 72.8155 24.2732C72.8155 24.166 72.8155 24.0187 72.8155 23.8312C72.8423 23.6168 72.8557 23.4695 72.8557 23.3891C72.8557 22.6925 72.7619 22.1567 72.5743 21.7816C72.36 21.2993 72.2528 20.7903 72.2528 20.2545C72.2528 19.5847 72.4002 18.9953 72.6949 18.4862C72.936 18.0844 73.0566 17.7763 73.0566 17.5619C73.0566 17.4012 73.0164 17.1734 72.936 16.8787C72.8557 16.5304 72.8155 16.2089 72.8155 15.9142C72.8155 15.8071 72.8155 15.6731 72.8155 15.5124C72.8423 15.3516 72.8557 15.2311 72.8557 15.1507C72.8557 14.7756 72.7485 14.3737 72.5342 13.9451C72.293 13.4628 72.1725 12.9136 72.1725 12.2974C72.1725 11.5204 72.36 10.864 72.7351 10.3282C72.9762 10.0067 73.0968 9.73879 73.0968 9.52445C73.0968 9.49766 73.0432 9.26993 72.936 8.84127C72.8557 8.51977 72.8155 8.21167 72.8155 7.91696C72.8155 6.57738 73.6594 5.42535 75.3473 4.46085ZM88.2983 4.46085C88.9681 4.05898 89.6512 3.85804 90.3478 3.85804C91.607 3.85804 92.6519 4.46085 93.4824 5.66647C93.9111 6.28267 94.1254 6.99265 94.1254 7.7964C94.1254 8.57335 93.9111 9.24314 93.4824 9.80577C93.1342 10.2612 92.96 10.5559 92.96 10.6899C92.96 10.8506 93.0136 11.0516 93.1208 11.2927C93.2547 11.641 93.3217 12.0161 93.3217 12.4179C93.3217 12.6591 93.3083 12.8466 93.2815 12.9806C93.2011 13.5164 93.1342 14.4407 93.0806 15.7535C93.027 17.1199 92.9332 17.9236 92.7993 18.1647C92.6117 18.513 92.6251 18.9015 92.8394 19.3302C93.0538 19.7588 93.1609 20.2411 93.1609 20.7769C93.1609 21.2056 93.0806 21.6208 92.9198 22.0227C92.8127 22.3978 92.7591 23.014 92.7591 23.8713V24.434V25.1975C92.7591 25.9745 92.5983 26.6175 92.2768 27.1265C91.5802 28.3053 90.5622 28.8948 89.2226 28.8948C87.8562 28.8948 86.8381 28.2786 86.1683 27.0461C85.8736 26.4567 85.7263 25.8807 85.7263 25.3181C85.7263 24.9162 85.7397 24.5679 85.7665 24.2732C85.7665 24.166 85.7665 24.0187 85.7665 23.8312C85.7933 23.6168 85.8067 23.4695 85.8067 23.3891C85.8067 22.6925 85.7129 22.1567 85.5253 21.7816C85.311 21.2993 85.2038 20.7903 85.2038 20.2545C85.2038 19.5847 85.3512 18.9953 85.6459 18.4862C85.887 18.0844 86.0076 17.7763 86.0076 17.5619C86.0076 17.4012 85.9674 17.1734 85.887 16.8787C85.8067 16.5304 85.7665 16.2089 85.7665 15.9142C85.7665 15.8071 85.7665 15.6731 85.7665 15.5124C85.7933 15.3516 85.8067 15.2311 85.8067 15.1507C85.8067 14.7756 85.6995 14.3737 85.4852 13.9451C85.244 13.4628 85.1235 12.9136 85.1235 12.2974C85.1235 11.5204 85.311 10.864 85.6861 10.3282C85.9272 10.0067 86.0478 9.73879 86.0478 9.52445C86.0478 9.49766 85.9942 9.26993 85.887 8.84127C85.8067 8.51977 85.7665 8.21167 85.7665 7.91696C85.7665 6.57738 86.6104 5.42535 88.2983 4.46085ZM105.951 10.5693C106.005 10.5157 106.233 10.4889 106.634 10.4889C106.956 10.4889 107.21 10.5023 107.398 10.5291C108.282 10.6095 109.072 10.864 109.769 11.2927C110.439 11.7214 110.921 11.9357 111.216 11.9357C111.484 11.9357 111.872 12.0697 112.381 12.3376C112.917 12.6055 113.292 12.86 113.506 13.1011C114.149 13.8245 114.471 15.0837 114.471 16.8787V18.0442C114.471 18.3121 114.578 18.7675 114.792 19.4105C114.953 19.8928 115.034 20.2411 115.034 20.4554C115.034 20.643 114.993 20.8975 114.913 21.219C114.779 21.728 114.471 22.2638 113.989 22.8265C113.533 23.3891 113.051 23.791 112.542 24.0321C112.06 24.2732 111.819 24.5009 111.819 24.7153C111.819 25.01 111.658 25.3851 111.336 25.8405C111.015 26.2692 110.653 26.6041 110.251 26.8452C109.742 27.1667 109.153 27.3274 108.483 27.3274C107.84 27.3274 107.251 27.1801 106.715 26.8854C106.259 26.6443 105.938 26.5237 105.75 26.5237C105.59 26.5237 105.348 26.5639 105.027 26.6443C104.705 26.7246 104.384 26.7648 104.062 26.7648C103.071 26.7648 102.174 26.4567 101.37 25.8405C100.593 25.2243 100.204 24.4875 100.204 23.6302C100.204 23.2551 99.9499 22.8533 99.4408 22.4246C98.5835 21.7548 98.1548 20.8975 98.1548 19.8526C98.1548 19.2096 98.3156 18.4862 98.6371 17.6825C98.9318 16.9859 99.0792 16.3295 99.0792 15.7133C99.0792 15.6597 99.0658 15.5526 99.039 15.3918C99.039 15.2311 99.039 15.0971 99.039 14.9899C99.0122 14.722 98.9988 14.4139 98.9988 14.0656C98.9988 13.5834 99.1327 13.1547 99.4007 12.7796C100.124 11.708 101.611 11.0784 103.861 10.8908C105.147 10.7837 105.844 10.6765 105.951 10.5693ZM125.988 7.87677C126.39 7.74281 126.778 7.67584 127.153 7.67584C127.85 7.67584 128.466 7.83659 129.002 8.15808C129.243 8.31883 129.457 8.39921 129.645 8.39921C129.806 8.39921 130.154 8.31883 130.69 8.15808C131.413 7.94375 131.962 7.83659 132.337 7.83659C133.114 7.83659 134.025 8.25186 135.07 9.08239C136.142 9.93972 136.678 11.0516 136.678 12.4179C136.678 12.9002 136.57 13.3958 136.356 13.9049C136.222 14.2532 136.155 14.5345 136.155 14.7488C136.155 14.856 136.182 14.9899 136.235 15.1507C136.369 15.5526 136.436 15.9142 136.436 16.2357C136.436 16.6108 136.343 17.0797 136.155 17.6423C136.021 17.9102 135.954 18.1513 135.954 18.3657C135.954 18.6068 136.021 18.8613 136.155 19.1292C136.316 19.5311 136.396 19.9598 136.396 20.4152C136.396 20.7635 136.383 21.0314 136.356 21.219C136.329 21.4065 136.316 21.661 136.316 21.9825C136.316 22.4112 136.383 22.7863 136.517 23.1078C136.838 23.724 136.999 24.4741 136.999 25.3583C136.999 26.5371 136.771 27.3141 136.316 27.6891C136.128 27.8499 136.035 28.3187 136.035 29.0957C136.035 29.8459 135.793 30.663 135.311 31.5471C134.829 32.4045 134.588 32.9939 134.588 33.3154C134.588 33.6637 134.4 34.1861 134.025 34.8827C133.65 35.606 133.315 36.0615 133.021 36.249C132.431 36.6241 131.681 36.8117 130.77 36.8117C130.422 36.8117 130.167 36.7983 130.006 36.7715C129.685 36.7179 129.484 36.6911 129.404 36.6911C129.082 36.6911 128.814 36.7715 128.6 36.9322C128.091 37.2269 127.501 37.3743 126.832 37.3743C126.242 37.3743 125.68 37.2537 125.144 37.0126C124.367 36.6911 123.697 36.5036 123.134 36.45C122.572 36.3964 121.929 36.1687 121.205 35.7668C120.482 35.3917 119.96 34.963 119.638 34.4808C119.263 33.945 119.076 33.2618 119.076 32.4312C119.076 31.8686 119.169 31.3194 119.357 30.7836C119.652 29.9798 120.107 29.3502 120.723 28.8948C121.339 28.4393 122.009 28.2116 122.733 28.2116C123.67 28.2116 124.461 28.5867 125.104 29.3368C125.318 29.6047 125.532 29.7789 125.747 29.8593C125.988 29.9128 126.416 29.953 127.033 29.9798L128.399 30.02L128.439 29.0153C128.466 28.5063 128.613 27.9571 128.881 27.3676C129.176 26.7514 129.43 26.4433 129.645 26.4433C129.752 26.4433 129.806 26.0013 129.806 25.1171V23.791L128.72 23.6302C128.292 23.5498 127.609 23.5097 126.671 23.5097H125.948H125.385C124.554 23.5097 123.898 23.3891 123.416 23.148C122.21 22.5318 121.607 21.5137 121.607 20.0937C121.607 19.799 121.647 19.4909 121.728 19.1694C121.808 18.8479 121.848 18.5934 121.848 18.4059C121.848 18.2183 121.781 17.9236 121.647 17.5217C121.46 16.9859 121.313 16.2759 121.205 15.3918C121.179 15.2311 121.165 15.0033 121.165 14.7086C121.165 13.5298 121.621 12.6189 122.532 11.9759C123.041 11.6276 123.349 11.1721 123.456 10.6095C123.536 10.1005 123.831 9.57804 124.34 9.0422C124.876 8.47958 125.425 8.09111 125.988 7.87677Z" fill="#5793F4"/>
</svg>
