<svg width="60" height="60" viewBox="0 0 60 60" fill="none" xmlns="http://www.w3.org/2000/svg">
<rect width="60" height="60" rx="30" fill="#1C1C1A"/>
<path d="M36.6638 38.0772C35.3716 39.2909 33.9606 39.0993 32.6024 38.5244C31.1651 37.9367 29.8464 37.9111 28.33 38.5244C26.4311 39.3165 25.429 39.0865 24.2949 38.0772C17.8599 31.6508 18.8094 21.8643 26.1147 21.5065C27.8948 21.596 29.1344 22.452 30.1761 22.5286C31.7321 22.222 33.2222 21.3404 34.8837 21.4554C36.8748 21.6087 38.3781 22.3753 39.3671 23.7551C35.2529 26.1443 36.2287 31.3953 40 32.8645C39.2484 34.781 38.2726 36.6846 36.6506 38.09L36.6638 38.0772ZM30.0442 21.4299C29.8464 18.5808 32.2332 16.23 34.976 16C35.3584 19.2963 31.8903 21.7493 30.0442 21.4299Z" fill="#FCF9F8"/>
</svg>
