<svg width="60" height="60" viewBox="0 0 60 60" fill="none" xmlns="http://www.w3.org/2000/svg">
<rect x="0.5" y="0.5" width="59" height="59" rx="29.5" fill="#FEFEFE"/>
<rect x="0.5" y="0.5" width="59" height="59" rx="29.5" stroke="#A8A7A3"/>
<path opacity="0.987" fill-rule="evenodd" clip-rule="evenodd" d="M27.5861 18.1042C28.8738 17.9653 29.6357 17.9653 31.0192 18.1042C33.4683 18.4542 35.7387 19.5473 37.5019 21.2255C36.3104 22.313 35.1345 23.4165 33.9746 24.5355C31.7534 22.7175 29.274 22.2979 26.5364 23.2766C24.5283 24.1684 23.1299 25.6136 22.3414 27.6122C21.0527 26.6858 19.7809 25.7378 18.5264 24.7687C18.4392 24.7244 18.3396 24.7082 18.2422 24.7224C20.2349 21.0123 23.349 18.8056 27.5843 18.1025" fill="#F44336"/>
<path opacity="0.997" fill-rule="evenodd" clip-rule="evenodd" d="M18.2366 24.7223C18.3372 24.7074 18.4326 24.7229 18.5225 24.7686C19.777 25.7377 21.0489 26.6857 22.3375 27.6121C22.1348 28.3908 22.0069 29.1859 21.9557 29.9874C21.9995 30.7625 22.1268 31.5234 22.3375 32.27L18.3325 35.3485C16.5884 31.8293 16.5564 28.2872 18.2366 24.7223Z" fill="#FFC107"/>
<path opacity="0.999" fill-rule="evenodd" clip-rule="evenodd" d="M37.3112 39.077C36.0642 38.015 34.7587 37.0188 33.4003 36.0929C34.762 35.1645 35.5885 33.8908 35.8797 32.2718H29.207V27.7974C33.0552 27.7665 36.9016 27.7979 40.7462 27.8917C41.4755 31.7162 40.6331 35.1645 38.2188 38.2366C37.9317 38.5313 37.6277 38.8118 37.3112 39.077Z" fill="#448AFF"/>
<path opacity="0.993" fill-rule="evenodd" clip-rule="evenodd" d="M22.3371 32.2719C23.7935 35.7671 26.4635 37.3986 30.3472 37.1665C31.4374 37.0446 32.4826 36.6769 33.3984 36.0929C34.7577 37.0213 36.0614 38.016 37.3094 39.077C35.332 40.7928 32.8108 41.8109 30.1571 41.9651C29.5542 42.0116 28.9484 42.0116 28.3455 41.9651C23.8248 41.4506 20.487 39.2451 18.332 35.3486L22.3371 32.2719Z" fill="#43A047"/>
</svg>
