<svg width="60" height="60" viewBox="0 0 60 60" fill="none" xmlns="http://www.w3.org/2000/svg">
<rect x="0.5" y="0.5" width="59" height="59" rx="29.5" fill="#FAC342"/>
<rect x="0.5" y="0.5" width="59" height="59" rx="29.5" stroke="#A8A7A3"/>
<path d="M29.9989 18C36.6274 18 42 22.5565 42 28.1788C42 33.7999 36.6274 38.3564 30 38.3564C29.3401 38.3551 28.681 38.3094 28.0263 38.2196L22.9886 41.8049C22.416 42.1344 22.2137 42.0984 22.4491 41.2913L23.4686 36.7173C20.1771 34.9017 18 31.7554 18 28.1788C18 22.5578 23.3714 18 30 18M36.752 28.0234L38.432 26.2525C38.5289 26.1429 38.583 25.9967 38.5829 25.8446C38.5827 25.6926 38.5283 25.5465 38.4311 25.4372C38.3339 25.3279 38.2015 25.2639 38.0619 25.2587C37.9222 25.2535 37.7861 25.3075 37.6823 25.4093L35.4789 27.7299V25.8123C35.4789 25.6566 35.422 25.5073 35.3209 25.3972C35.2197 25.2871 35.0825 25.2253 34.9394 25.2253C34.7964 25.2253 34.6592 25.2871 34.558 25.3972C34.4568 25.5073 34.4 25.6566 34.4 25.8123V28.9921C34.381 29.083 34.381 29.1773 34.4 29.2682V31.0577C34.4 31.2134 34.4568 31.3627 34.558 31.4728C34.6592 31.5829 34.7964 31.6447 34.9394 31.6447C35.0825 31.6447 35.2197 31.5829 35.3209 31.4728C35.422 31.3627 35.4789 31.2134 35.4789 31.0577V29.3627L35.9669 28.8491L37.5989 31.3773C37.6396 31.4405 37.6914 31.4942 37.7512 31.5356C37.8111 31.5769 37.8778 31.605 37.9476 31.6183C38.0175 31.6316 38.089 31.6298 38.1582 31.613C38.2274 31.5962 38.2929 31.5647 38.3509 31.5204C38.4089 31.476 38.4583 31.4197 38.4963 31.3546C38.5343 31.2894 38.5601 31.2168 38.5723 31.1408C38.5845 31.0648 38.5829 30.987 38.5674 30.9117C38.552 30.8364 38.523 30.7652 38.4823 30.7021L36.752 28.0234ZM33.3714 30.416H31.7029V25.8309C31.6965 25.6801 31.6369 25.5377 31.5366 25.4334C31.4362 25.3291 31.3028 25.2709 31.164 25.2709C31.0252 25.2709 30.8918 25.3291 30.7914 25.4334C30.6911 25.5377 30.6315 25.6801 30.6251 25.8309V31.003C30.6251 31.3264 30.8651 31.59 31.1634 31.59H33.3714C33.5145 31.59 33.6517 31.5282 33.7529 31.4181C33.854 31.308 33.9109 31.1587 33.9109 31.003C33.9109 30.8473 33.854 30.698 33.7529 30.588C33.6517 30.4779 33.5145 30.416 33.3714 30.416ZM26.6777 29.0593L27.4731 26.9352L28.2023 29.058L26.6777 29.0593ZM29.5611 29.6649L29.5634 29.645C29.563 29.4972 29.5112 29.355 29.4183 29.2471L28.2229 25.765C28.1727 25.5991 28.0773 25.4537 27.9492 25.3484C27.8212 25.2431 27.6667 25.1828 27.5063 25.1755C27.3449 25.1755 27.1872 25.2285 27.054 25.3277C26.9208 25.4269 26.8183 25.5677 26.76 25.7314L24.8606 30.7991C24.8065 30.9432 24.8072 31.1048 24.8626 31.2484C24.918 31.3919 25.0235 31.5056 25.156 31.5645C25.2885 31.6234 25.437 31.6226 25.5689 31.5623C25.7008 31.502 25.8053 31.3872 25.8594 31.243L26.2389 30.232H28.6046L28.9451 31.2269C28.9684 31.3012 29.0051 31.3698 29.0531 31.4284C29.1011 31.4871 29.1595 31.5346 29.2247 31.5683C29.2899 31.6019 29.3607 31.621 29.4328 31.6244C29.5049 31.6277 29.5769 31.6153 29.6445 31.5878C29.7121 31.5604 29.774 31.5184 29.8265 31.4645C29.8789 31.4105 29.9209 31.3456 29.9499 31.2737C29.9789 31.2018 29.9943 31.1242 29.9952 31.0457C29.9962 30.9672 29.9827 30.8892 29.9554 30.8165L29.5611 29.6649ZM25.7634 25.8371C25.7637 25.7601 25.75 25.6837 25.7231 25.6124C25.6962 25.5411 25.6565 25.4763 25.6065 25.4218C25.5565 25.3672 25.497 25.324 25.4316 25.2945C25.3661 25.2651 25.296 25.25 25.2251 25.2502H21.5166C21.3735 25.2502 21.2363 25.312 21.1351 25.4221C21.034 25.5322 20.9771 25.6815 20.9771 25.8371C20.9771 25.9928 21.034 26.1421 21.1351 26.2522C21.2363 26.3623 21.3735 26.4241 21.5166 26.4241H22.8423V31.0702C22.8423 31.2258 22.8991 31.3751 23.0003 31.4852C23.1014 31.5953 23.2386 31.6571 23.3817 31.6571C23.5248 31.6571 23.662 31.5953 23.7631 31.4852C23.8643 31.3751 23.9211 31.2258 23.9211 31.0702V26.4241H25.224C25.2949 26.4244 25.3652 26.4095 25.4308 26.3801C25.4964 26.3507 25.556 26.3075 25.6061 26.2529C25.6563 26.1983 25.696 26.1335 25.723 26.0621C25.75 25.9908 25.7637 25.9143 25.7634 25.8371Z" fill="black"/>
</svg>
