<svg width="36" height="36" viewBox="0 0 36 36" fill="none" xmlns="http://www.w3.org/2000/svg">
<path d="M18 5.5C16.8065 5.5 15.6619 5.97411 14.818 6.81802C13.9741 7.66193 13.5 8.80653 13.5 10C13.5 11.1935 13.9741 12.3381 14.818 13.182C15.6619 14.0259 16.8065 14.5 18 14.5C19.1935 14.5 20.3381 14.0259 21.182 13.182C22.0259 12.3381 22.5 11.1935 22.5 10C22.5 8.80653 22.0259 7.66193 21.182 6.81802C20.3381 5.97411 19.1935 5.5 18 5.5ZM19.5 16H16.5C12.36 16 9 19.36 9 23.5V24.25C9 25.495 10.005 26.5 11.25 26.5H24.75C25.995 26.5 27 25.495 27 24.25V23.5C27 19.36 23.64 16 19.5 16ZM9.75 14.5C10.455 14.5 11.1 14.32 11.655 14.005C11.0259 13.0034 10.6411 11.8679 10.5317 10.6901C10.4222 9.51237 10.5912 8.3254 11.025 7.225C10.635 7.09 10.2 7 9.75 7C7.59 7 6 8.59 6 10.75C6 12.91 7.59 14.5 9.75 14.5ZM9.165 16H8.25C5.355 16 3 18.355 3 21.25V22.75C3 23.17 3.33 23.5 3.75 23.5H6C6 20.56 7.215 17.905 9.165 16ZM26.25 14.5C28.41 14.5 30 12.91 30 10.75C30 8.59 28.41 7 26.25 7C25.785 7 25.365 7.09 24.975 7.225C25.4088 8.3254 25.5778 9.51237 25.4683 10.6901C25.3589 11.8679 24.9741 13.0034 24.345 14.005C24.9 14.32 25.53 14.5 26.25 14.5ZM27.75 16H26.835C27.8373 16.975 28.6338 18.1411 29.1774 19.4293C29.7211 20.7175 30.0008 22.1017 30 23.5H32.25C32.67 23.5 33 23.17 33 22.75V21.25C33 18.355 30.645 16 27.75 16Z" fill="#A8A7A3"/>
</svg>
