<svg width="36" height="36" viewBox="0 0 36 36" fill="none" xmlns="http://www.w3.org/2000/svg">
<path fill-rule="evenodd" clip-rule="evenodd" d="M11.6667 8.33333C11.6667 6.91885 12.2286 5.56229 13.2288 4.5621C14.229 3.5619 15.5855 3 17 3C18.4145 3 19.771 3.5619 20.7712 4.5621C21.7714 5.56229 22.3333 6.91885 22.3333 8.33333C22.3333 9.74782 21.7714 11.1044 20.7712 12.1046C19.771 13.1048 18.4145 13.6667 17 13.6667C15.5855 13.6667 14.229 13.1048 13.2288 12.1046C12.2286 11.1044 11.6667 9.74782 11.6667 8.33333ZM11.6667 16.3333C9.89856 16.3333 8.20286 17.0357 6.95262 18.286C5.70238 19.5362 5 21.2319 5 23C5 24.0609 5.42143 25.0783 6.17157 25.8284C6.92172 26.5786 7.93913 27 9 27H25C26.0609 27 27.0783 26.5786 27.8284 25.8284C28.5786 25.0783 29 24.0609 29 23C29 21.2319 28.2976 19.5362 27.0474 18.286C25.7971 17.0357 24.1014 16.3333 22.3333 16.3333H11.6667Z" fill="#A8A7A3"/>
</svg>
