<svg width="36" height="36" viewBox="0 0 36 36" fill="none" xmlns="http://www.w3.org/2000/svg">
<path d="M8.925 25.5C6.425 25.375 4.5625 24.85 3.3375 23.925C2.1125 23 1.5 21.6625 1.5 19.9125C1.5 18.2875 2.169 16.969 3.507 15.957C4.845 14.945 6.701 14.3385 9.075 14.1375C10.05 14.0625 10.7815 13.9065 11.2695 13.6695C11.7575 13.4325 12.001 13.101 12 12.675C12 12.025 11.6315 11.5375 10.8945 11.2125C10.1575 10.8875 8.9385 10.65 7.2375 10.5L7.5 7.5C10.075 7.7 11.969 8.219 13.182 9.057C14.395 9.895 15.001 11.101 15 12.675C15 14 14.519 15.0375 13.557 15.7875C12.595 16.5375 11.176 16.9875 9.3 17.1375C7.7 17.2625 6.5 17.5565 5.7 18.0195C4.9 18.4825 4.5 19.1135 4.5 19.9125C4.5 20.7875 4.85 21.419 5.55 21.807C6.25 22.195 7.425 22.426 9.075 22.5L8.925 25.5ZM20.8125 24.375L14.625 18.1875L27.5625 5.25C28.0625 4.75 28.6565 4.5 29.3445 4.5C30.0325 4.5 30.626 4.75 31.125 5.25L33.75 7.875C34.25 8.375 34.5 8.969 34.5 9.657C34.5 10.345 34.25 10.9385 33.75 11.4375L20.8125 24.375ZM13.4625 27C13.0375 27.1 12.6625 26.9875 12.3375 26.6625C12.0125 26.3375 11.9 25.9625 12 25.5375L13.1625 19.875L19.0875 25.8L13.4625 27Z" fill="#A8A7A3"/>
</svg>
